<svg width="20" height="20" viewBox="0 0 20 20" fill="none" xmlns="http://www.w3.org/2000/svg">
<path fill-rule="evenodd" clip-rule="evenodd" d="M17 0H3C1.3 0 0 1.3 0 3V17C0 18.7 1.3 20 3 20H17C18.7 20 20 18.7 20 17V3C20 1.3 18.7 0 17 0ZM18 17C18 17.6 17.6 18 17 18H3C2.4 18 2 17.6 2 17V3C2 2.4 2.4 2 3 2H17C17.6 2 18 2.4 18 3V17ZM11.4 10L13.7 7.7C14.1 7.3 14.1 6.7 13.7 6.3C13.3 5.9 12.7 5.9 12.3 6.3L10 8.6L7.7 6.3C7.3 5.9 6.7 5.9 6.3 6.3C5.9 6.7 5.9 7.3 6.3 7.7L8.6 10L6.3 12.3C5.9 12.7 5.9 13.3 6.3 13.7C6.5 13.9 6.7 14 7 14C7.3 14 7.5 13.9 7.7 13.7L10 11.4L12.3 13.7C12.5 13.9 12.7 14 13 14C13.3 14 13.5 13.9 13.7 13.7C14.1 13.3 14.1 12.7 13.7 12.3L11.4 10Z" fill="#145976"/>
</svg>
