<svg width="257" height="81" viewBox="0 0 257 81" fill="none" xmlns="http://www.w3.org/2000/svg">
<g opacity="0.5">
<path d="M63.6655 80.6434C62.8855 80.3434 62.4955 79.4734 62.7855 78.6934C62.9455 78.2834 63.2655 77.9634 63.6755 77.8134L62.3855 70.2534C61.5655 70.2534 60.8955 69.5734 60.9055 68.7534C60.9055 68.7034 60.9055 68.6534 60.9055 68.5934L38.4555 62.0134C38.0655 62.7534 37.1455 63.0234 36.4155 62.6334C35.7555 62.2834 35.4555 61.5034 35.7055 60.8034L30.2955 57.5634C29.7355 58.1734 28.7855 58.2234 28.1755 57.6634C28.1155 57.6034 28.0555 57.5434 28.0055 57.4834L23.3055 59.9934C24.0455 61.7034 23.2655 63.6834 21.5555 64.4234C20.7555 64.7734 19.8555 64.7934 19.0455 64.4934L12.6855 78.0134C13.3655 78.5034 13.5255 79.4534 13.0355 80.1334C12.5455 80.8134 11.5955 80.9734 10.9155 80.4834C10.2355 79.9934 10.0755 79.0434 10.5655 78.3634C10.6555 78.2434 10.7555 78.1334 10.8755 78.0434L4.65546 65.8134C2.93546 66.5234 0.965456 65.7034 0.255456 63.9734C-0.454544 62.2534 0.365456 60.2834 2.09546 59.5734C3.19546 59.1234 4.44546 59.2834 5.39546 59.9934L17.2955 46.5034C16.0055 45.1634 16.0455 43.0334 17.3955 41.7434C18.1655 41.0034 19.2455 40.6734 20.2955 40.8534L26.5655 16.5834C26.5655 16.5834 26.4955 16.5634 26.4655 16.5534C24.7255 15.8834 23.8555 13.9434 24.5255 12.2034C25.1955 10.4634 27.1355 9.59344 28.8755 10.2634C29.4355 10.4734 29.9255 10.8334 30.3055 11.3034L39.6955 5.00344C38.7955 3.37344 39.3755 1.32344 41.0055 0.42344C42.6355 -0.47656 44.6855 0.10344 45.5855 1.73344C46.4855 3.35344 45.9055 5.39344 44.2955 6.30344L59.9955 40.6934C60.8055 40.4834 61.6255 40.9734 61.8355 41.7834C62.0455 42.5934 61.5555 43.4134 60.7455 43.6234C60.7255 43.6234 60.7055 43.6234 60.6855 43.6334L60.9255 51.3334C62.7855 51.4234 64.2055 53.0134 64.1155 54.8634C64.0955 55.2234 64.0255 55.5734 63.8955 55.9034C63.8455 56.0234 63.7955 56.1534 63.7255 56.2734L72.0154 61.5834C73.1454 60.1034 75.2654 59.8234 76.7355 60.9534C78.2155 62.0834 78.4955 64.2034 77.3655 65.6734C76.4555 66.8634 74.8755 67.3034 73.4855 66.7734C73.3354 66.7134 73.1954 66.6534 73.0555 66.5734L65.2855 78.1534C65.8855 78.7434 65.8954 79.6934 65.3055 80.2934C64.8855 80.7234 64.2455 80.8634 63.6755 80.6434H63.6655ZM61.4155 57.9834L62.5255 67.2334C63.3555 67.2834 63.9855 68.0034 63.9355 68.8334C63.8955 69.4334 63.5155 69.9434 62.9455 70.1534L64.2355 77.7134C64.4155 77.7134 64.5855 77.7534 64.7555 77.8134C64.7755 77.8134 64.7855 77.8334 64.8055 77.8434L72.5755 66.2534C71.4255 65.3334 71.0055 63.7834 71.5355 62.4134C71.5855 62.2934 71.6355 62.1634 71.7055 62.0434L63.4155 56.7334C62.9255 57.3734 62.2155 57.8234 61.4255 57.9834H61.4155ZM6.74546 62.7034C6.74546 63.8634 6.14546 64.9434 5.15546 65.5534L11.3855 77.7834C11.6455 77.7034 11.9255 77.7034 12.1855 77.7734L18.5455 64.2434C17.6755 63.7434 17.0755 62.8734 16.9055 61.8834L6.74546 62.7034ZM38.6355 61.2034C38.6355 61.2934 38.6355 61.3934 38.6355 61.4834L61.0855 68.0734C61.2655 67.7134 61.5855 67.4434 61.9755 67.3234L60.8655 58.0734C59.4155 58.1234 58.0955 57.2434 57.5955 55.8834L38.6455 61.2134L38.6355 61.2034ZM5.81546 60.3634C6.28546 60.8534 6.59546 61.4734 6.70546 62.1434L16.8555 61.3234C16.8555 59.6134 18.1455 58.1834 19.8455 57.9934L19.5355 47.5334C18.8755 47.5034 18.2355 47.2734 17.7055 46.8734L5.80546 60.3634H5.81546ZM37.6755 59.9134C38.0255 60.0534 38.3155 60.3134 38.4855 60.6534L57.4355 55.3234C57.1955 54.0934 57.6655 52.8234 58.6455 52.0534L40.0955 24.1534C39.3255 24.4634 38.4455 24.0934 38.1355 23.3134C37.9955 22.9534 37.9855 22.5634 38.1355 22.2034C38.1555 22.1534 38.1755 22.1134 38.1955 22.0734L30.1355 15.6934C29.5955 16.2734 28.8655 16.6434 28.0755 16.7334L29.3955 55.0334C29.5155 55.0434 29.6255 55.0734 29.7355 55.1134C30.5155 55.4134 30.9055 56.2934 30.6055 57.0734L36.0055 60.3034C36.2955 59.9834 36.7055 59.7934 37.1355 59.7934C37.3155 59.7934 37.5055 59.8334 37.6755 59.8934V59.9134ZM20.8355 40.9834C20.8355 40.9834 20.9055 41.0034 20.9355 41.0134C22.6755 41.6834 23.5355 43.6234 22.8755 45.3634C22.4255 46.5334 21.3555 47.3634 20.1055 47.5034L20.4155 57.9634C21.4955 58.0234 22.4755 58.5934 23.0555 59.4934L27.7455 56.9834C27.4955 56.1934 27.9255 55.3534 28.7155 55.0934C28.7455 55.0834 28.7855 55.0734 28.8255 55.0634L27.5055 16.7534C27.3755 16.7534 27.2355 16.7334 27.1055 16.7134L20.8355 40.9834ZM59.1155 51.7334C59.4955 51.5234 59.9155 51.3834 60.3555 51.3334L60.1155 43.6334C60.0055 43.6134 59.9055 43.5934 59.8055 43.5534C59.0255 43.2534 58.6355 42.3734 58.9355 41.5934C58.9755 41.5034 59.0155 41.4134 59.0655 41.3334L41.0655 24.5934L59.1155 51.7434V51.7334ZM40.0255 21.3134C40.0255 21.3134 40.0655 21.3134 40.0855 21.3334C40.8655 21.6334 41.2555 22.5034 40.9655 23.2734C40.9255 23.3834 40.8755 23.4834 40.8055 23.5734L59.4455 40.9134C59.4455 40.9134 59.4555 40.9034 59.4655 40.8934L43.7555 6.52344C43.3055 6.68344 42.8355 6.75344 42.3655 6.71344L40.0155 21.3234L40.0255 21.3134ZM30.6155 11.7534C31.2355 12.8534 31.1755 14.2034 30.4755 15.2534L38.5255 21.6234C38.7855 21.3934 39.1155 21.2534 39.4655 21.2334L41.8055 6.61344C41.6655 6.58344 41.5355 6.54344 41.4055 6.49344C40.8455 6.28344 40.3555 5.92344 39.9855 5.45344L30.6055 11.7534H30.6155ZM183.715 41.2734H175.975V43.6334L173.365 44.3134V39.1934H174.715C176.285 37.7434 176.375 33.9934 176.375 30.6234V27.5634H184.795V39.1934H186.325V43.6434L183.715 44.3234V41.2834V41.2734ZM178.975 30.4234C178.975 34.1734 178.835 37.7234 177.655 39.2434H181.895V29.6334H178.975V30.4234ZM97.9255 39.3434C100.035 39.3434 100.365 37.3334 100.385 31.1434V27.5634H108.805V41.2834H105.905V29.6634H102.965V30.3634C102.965 36.9234 102.815 41.5634 97.9355 41.5634V39.3534L97.9255 39.3434ZM85.7555 34.4334C85.7555 32.7534 86.1655 27.2734 91.6954 27.2734C97.2254 27.2734 97.6755 32.7534 97.6755 34.4334C97.6755 36.1134 97.2355 41.5534 91.6954 41.5534C86.1554 41.5534 85.7555 36.1534 85.7555 34.4334ZM88.7555 34.4334C88.7555 35.6334 88.8755 39.6234 91.6954 39.6234C94.5154 39.6234 94.6755 35.6334 94.6755 34.4334C94.6755 33.2334 94.5754 29.2134 91.6954 29.2134C88.8155 29.2134 88.7555 33.2034 88.7555 34.4334ZM252.905 41.2834L250.175 36.0834H250.045L247.375 41.2834H244.335L248.495 34.0234L244.915 27.5634H247.995L250.125 32.0134H250.255L252.385 27.5634H255.365L251.845 34.0234L256.025 41.2734H252.905V41.2834ZM239.605 41.2834V27.5634H242.505V41.2834H239.605ZM228.555 41.2834V27.5634H231.455V33.1134H233.545C234.915 33.1134 238.345 33.2334 238.345 37.2334C238.345 41.0234 234.435 41.2734 233.525 41.2734H228.555V41.2834ZM231.395 39.2934H233.015C235.045 39.2934 235.435 38.1934 235.435 37.1634C235.435 36.2534 235.065 35.1534 233.075 35.1534H231.395V39.2934ZM222.775 41.2834V35.2134H217.875V41.2834H214.975V27.5634H217.875V33.1134H222.775V27.5634H225.675V41.2834H222.775ZM209.195 41.2834V35.2134H204.295V41.2834H201.395V27.5634H204.295V33.1134H209.195V27.5634H212.095V41.2834H209.195ZM196.685 41.2834L195.625 38.1834H191.155L190.145 41.2834H187.285L192.125 27.5634H194.735L199.575 41.2834H196.695H196.685ZM191.785 36.1734H194.975L193.385 31.1634H193.285L191.785 36.1734ZM163.385 41.2834L160.655 36.0834H160.515L157.845 41.2834H154.805L158.965 34.0234L155.385 27.5634H158.465L160.595 32.0134H160.735L162.865 27.5634H165.845L162.325 34.0234L166.515 41.2834H163.385ZM149.875 41.2834V31.9234H149.805L144.985 41.2834H142.085V27.5634H144.985V36.9334H145.065L149.885 27.5634H152.785V41.2834H149.875ZM123.605 41.2834V27.5634H126.485V39.1934H129.965V27.5634H132.845V39.1934H136.305V27.5634H139.195V41.2834H123.595H123.605ZM111.665 41.2834V27.5634H114.565V33.1134H116.785C118.155 33.1134 121.585 33.2334 121.585 37.2334C121.585 41.0234 117.675 41.2734 116.765 41.2734H111.655L111.665 41.2834ZM114.515 39.2834H116.175C118.205 39.2834 118.595 38.1834 118.595 37.1534C118.595 36.2434 118.225 35.1434 116.235 35.1434H114.515V39.2834ZM74.4355 41.2734V27.5534H83.3955V29.6434H77.3354V33.1234H79.8155C81.0555 33.1234 84.6155 33.2234 84.6155 37.2234C84.6155 41.0134 80.7055 41.2634 79.7955 41.2634H74.4355V41.2734ZM77.2755 39.2834H79.1954C81.2254 39.2834 81.6155 38.1834 81.6155 37.1534C81.6155 36.2434 81.2455 35.1434 79.2555 35.1434H77.2855V39.2834H77.2755ZM172.155 20.6934H162.925V6.99344H165.825V18.6234H170.335V6.99344H173.235V18.6234H174.765V23.0734L172.155 23.7534V20.7134V20.6934ZM132.225 20.6934H122.995V6.99344H125.895V18.6234H130.415V6.99344H133.315V18.6234H134.845V23.0734L132.235 23.7534V20.7134L132.225 20.6934ZM109.105 13.8434C109.105 12.1634 109.515 6.68344 115.045 6.68344C120.575 6.68344 121.025 12.1634 121.025 13.8434C121.025 15.5234 120.585 20.9634 115.045 20.9634C109.505 20.9634 109.105 15.5634 109.105 13.8434ZM112.105 13.8434C112.105 15.0434 112.225 19.0334 115.045 19.0334C117.865 19.0334 118.025 15.0434 118.025 13.8434C118.025 12.6434 117.925 8.62344 115.045 8.62344C112.215 8.62344 112.105 12.6134 112.105 13.8434ZM97.6855 13.8434C97.6855 8.93344 100.165 6.68344 103.665 6.68344C104.985 6.65344 106.285 6.93344 107.475 7.49344V10.0634C106.495 9.25344 105.265 8.80344 103.995 8.78344C101.805 8.78344 100.685 10.7734 100.685 13.8734C100.685 17.3134 101.785 18.8434 104.085 18.8434C105.325 18.7734 106.515 18.3334 107.515 17.5834V20.1534C106.265 20.7334 104.885 21.0034 103.505 20.9534C99.4255 20.9534 97.6755 18.1234 97.6755 13.8334L97.6855 13.8434ZM86.5655 13.8434C86.5655 8.93344 89.0455 6.68344 92.5455 6.68344C93.8655 6.65344 95.1655 6.93344 96.3555 7.49344V10.0634C95.3755 9.25344 94.1454 8.80344 92.8755 8.78344C90.6854 8.78344 89.5655 10.7734 89.5655 13.8734C89.5655 17.3134 90.6655 18.8434 92.9755 18.8434C94.2155 18.7734 95.4055 18.3334 96.4055 17.5834V20.1534C95.1555 20.7334 93.7755 21.0034 92.3955 20.9534C88.3155 20.9534 86.5755 18.1234 86.5755 13.8334L86.5655 13.8434ZM196.645 20.6934V15.0834H196.395C194.075 15.0834 193.575 18.3534 191.865 20.6934H188.675C190.785 17.8134 191.095 15.3534 193.295 14.6934L193.315 14.5434C190.815 14.2134 189.855 12.7034 189.855 10.8834C189.855 7.94344 192.215 6.97344 194.885 6.97344H199.545V20.6934H196.645ZM192.755 11.0134C192.755 12.8134 194.305 13.0434 195.155 13.0434H196.685V9.00344H195.345C194.475 9.00344 192.745 9.04344 192.745 11.0134H192.755ZM184.265 20.6934V11.3534H184.185L179.365 20.7134H176.465V6.99344H179.365V16.3634H179.445L184.265 7.00344H187.165V20.7234H184.265V20.6934ZM158.215 20.6934L157.155 17.5934H152.685L151.675 20.6934H148.805L153.645 6.97344H156.255L161.095 20.6934H158.225H158.215ZM153.315 15.5834H156.505L154.915 10.5634H154.815L153.305 15.5834H153.315ZM144.335 20.6934V11.3534H144.255L139.435 20.7134H136.535V6.99344H139.435V16.3634H139.515L144.335 7.00344H147.235V20.7234H144.335V20.6934ZM83.4454 20.6934L82.3855 17.5934H77.9155L76.9055 20.6934H74.0455L78.8855 6.97344H81.4955L86.3354 20.6934H83.4555H83.4454ZM78.5455 15.5834H81.7355L80.1555 10.5634H80.0555L78.5455 15.5834Z" fill="white"/>
</g>
</svg>
