<svg width="258" height="60" viewBox="0 0 258 60" fill="none" xmlns="http://www.w3.org/2000/svg">
<g opacity="0.5">
<path d="M0 43.6374H8.4751V41.6238H1.78423V38.718H8.4751V36.7044H0V43.6247V43.6374Z" fill="white"/>
<path d="M0 33.5947H8.4751V31.6958H1.78423V28.688H8.4751V26.7891H0V33.5947Z" fill="white"/>
<path d="M0 16.517V18.862L3.68317 21.6531H0V23.6667H8.4751V21.6531H4.46058L8.4751 18.7473V16.2876L3.89982 19.7414L0 16.517Z" fill="white"/>
<path d="M22.3159 16.2876H11.8271V43.6247H17.7406V35.0349H22.9913C27.4519 34.9202 31.2498 31.6831 31.9253 27.1078C32.2566 24.202 31.6959 21.5256 29.5803 19.2953C27.6813 17.1797 25.1197 16.2876 22.3286 16.2876H22.3159ZM22.9913 29.5675C21.3218 29.6822 19.5376 29.5675 17.8553 29.5675V21.8697H18.3014C19.8689 21.8697 21.4238 21.8697 22.9913 21.9844C24.8903 22.2138 26.1138 23.7687 26.1138 25.7823C25.9991 27.6813 24.7756 29.3508 22.9913 29.5802V29.5675Z" fill="white"/>
<path d="M44.8603 11.2663C39.5076 14.0574 36.6018 18.7473 35.1489 24.6608H43.2927C43.5221 24.6608 43.8534 24.3295 43.9681 24.1001C46.4278 18.6326 51.8952 15.9563 57.694 17.6258C61.8232 18.7473 64.3849 21.5257 65.723 25.7696H50.659V33.4673H65.6083C64.1555 39.6102 57.4646 43.3953 51.207 41.6111C47.5239 40.6043 45.0642 38.1573 43.726 34.5761C43.6113 34.3467 43.3946 34.0153 43.1652 34.0153H35.0215C35.7989 38.3612 37.5831 42.0444 40.7183 44.9502C44.5162 48.5186 49.0914 50.2009 54.2147 50.2009C59.338 50.2009 64.4868 48.6333 68.3866 44.8482C74.3001 39.1514 75.9696 32.1291 74.0834 24.3167C70.8463 10.3614 55.6676 5.45478 44.8475 11.2663H44.8603Z" fill="white"/>
<path d="M109.144 0C92.7417 0 79.4619 13.3945 79.4619 29.7968C79.4619 35.8249 81.2462 41.2924 84.2666 45.9824H92.9711V37.2778C91.9643 34.9328 91.3016 32.4731 91.3016 29.7968C91.3016 19.8688 99.2287 11.9416 109.157 11.9416C111.833 11.9416 114.407 12.5024 116.638 13.6112H125.342V4.8047C120.652 1.79698 115.07 0 109.157 0H109.144Z" fill="white"/>
<path d="M125.202 13.6112V22.3157C126.209 24.6607 126.872 27.1204 126.872 29.7968C126.872 39.7248 118.945 47.6519 109.017 47.6519C106.34 47.6519 103.766 47.0911 101.536 45.9824H92.8311V54.8016C97.521 57.8093 102.988 59.6063 109.017 59.6063C125.419 59.6063 138.699 46.2118 138.699 29.8095C138.699 23.7813 136.914 18.3139 133.907 13.6239H125.202V13.6112Z" fill="white"/>
<path d="M149.085 19.754H147.505V11.0877H150.028C150.666 11.0877 151.137 11.0877 151.609 11.2406C152.08 11.3936 152.399 11.5592 152.705 11.8651C153.023 12.1837 153.176 12.4896 153.176 12.8082C153.329 13.1268 153.329 13.4327 153.329 13.917C153.329 14.7071 153.011 15.3316 152.539 15.9689C151.914 16.4404 151.277 16.759 150.181 16.759H149.072V19.754H149.085ZM150.028 12.5023H148.92V15.1787H150.028C150.5 15.1787 150.971 15.0258 151.137 14.8601C151.456 14.7071 151.609 14.2356 151.609 13.7513C151.762 12.9611 151.137 12.4896 150.028 12.4896V12.5023Z" fill="white"/>
<path d="M154.451 15.3443C154.451 14.0826 154.923 12.9866 155.713 12.1964C156.503 11.4063 157.599 10.9347 159.026 10.9347C160.288 10.9347 161.384 11.4063 162.34 12.1964C163.13 12.9866 163.602 14.0826 163.602 15.51C163.602 16.7717 163.13 17.8678 162.34 18.6579C161.55 19.4481 160.454 19.9196 159.026 19.9196C157.765 19.9196 156.656 19.4481 155.713 18.6579C154.77 17.8678 154.451 16.7717 154.451 15.3443ZM156.031 15.3443C156.031 16.2874 156.35 16.9247 156.822 17.5491C157.446 18.1736 158.083 18.4922 158.874 18.4922C159.817 18.4922 160.454 18.1736 160.925 17.5491C161.397 16.9247 161.716 16.2874 161.716 15.3443C161.716 14.4012 161.397 13.764 160.925 13.1395C160.301 12.515 159.664 12.3494 158.874 12.3494C158.083 12.3494 157.293 12.668 156.822 13.1395C156.184 13.764 156.031 14.5542 156.031 15.3443Z" fill="white"/>
<path d="M171.147 17.715L171.771 18.8238C171.453 19.1424 171.147 19.2953 170.675 19.4483C170.204 19.6012 169.566 19.7669 169.095 19.7669C167.833 19.7669 166.724 19.2953 165.781 18.5052C164.991 17.715 164.52 16.619 164.52 15.1916C164.52 13.9299 164.838 12.8211 165.616 12.0437C166.406 11.2535 167.502 10.782 168.929 10.782C170.038 10.782 170.981 11.1006 171.605 11.7251L170.981 12.8338C170.357 12.5152 169.719 12.2094 169.095 12.2094C168.305 12.2094 167.68 12.528 167.043 12.9995C166.571 13.624 166.253 14.2612 166.253 15.2043C166.253 16.1474 166.571 16.7847 167.043 17.4091C167.667 18.0336 168.305 18.1993 169.248 18.1993C169.872 18.5179 170.509 18.1993 171.134 17.7278L171.147 17.715Z" fill="white"/>
<path d="M179.035 17.715L179.66 18.8238C179.341 19.1424 179.035 19.2953 178.551 19.4483C178.08 19.6012 177.442 19.7669 176.971 19.7669C175.709 19.7669 174.613 19.2953 173.657 18.5052C172.867 17.715 172.396 16.619 172.396 15.1916C172.396 13.9299 172.714 12.8211 173.504 12.0437C174.294 11.2535 175.39 10.782 176.818 10.782C177.927 10.782 178.87 11.1006 179.494 11.7251L178.87 12.8338C178.232 12.5152 177.608 12.2094 176.984 12.2094C176.193 12.2094 175.569 12.528 174.932 12.9995C174.46 13.624 174.142 14.2612 174.142 15.2043C174.142 16.1474 174.46 16.7847 174.932 17.4091C175.569 18.0336 176.193 18.1993 177.136 18.1993C177.608 18.5179 178.398 18.1993 179.023 17.7278L179.035 17.715Z" fill="white"/>
<path d="M182.336 19.754H181.074V11.0877H182.655V17.2306L187.23 11.0877H188.492V19.754H186.911V13.6111L182.336 19.754Z" fill="white"/>
<path d="M192.277 19.754H190.862V11.0877H192.443V17.2306L197.018 11.0877H198.433V19.754H196.852V13.6111L192.277 19.754ZM192.277 8.88289H193.692C193.845 9.35444 194.163 9.67305 194.8 9.67305C195.438 9.67305 195.743 9.35444 195.743 8.88289H197.158C197.158 9.35444 196.839 9.82599 196.521 10.1446C196.049 10.4632 195.412 10.6161 194.788 10.6161C193.997 10.6161 193.526 10.4632 193.054 10.1446C192.583 9.99167 192.264 9.52012 192.264 8.88289H192.277Z" fill="white"/>
<path d="M206.767 17.715L207.404 18.8238C207.085 19.1424 206.767 19.2953 206.295 19.4483C205.824 19.6012 205.186 19.7669 204.715 19.7669C203.453 19.7669 202.357 19.2953 201.401 18.5052C200.611 17.715 200.14 16.619 200.14 15.1916C200.14 13.9299 200.458 12.8211 201.248 12.0437C202.039 11.2535 203.135 10.782 204.562 10.782C205.671 10.782 206.614 11.1006 207.238 11.7251L206.614 12.8338C205.989 12.5152 205.352 12.2094 204.728 12.2094C203.938 12.2094 203.313 12.528 202.676 12.9995C202.204 13.624 201.886 14.2612 201.886 15.2043C201.886 16.1474 202.204 16.7847 202.676 17.4091C203.3 18.0336 203.938 18.1993 204.881 18.1993C205.505 18.5179 206.142 18.1993 206.767 17.7278V17.715Z" fill="white"/>
<path d="M208.819 19.754V11.0877H210.4V15.1914L213.866 11.0877H215.752L212.133 15.1914L215.918 19.7667H214.032L210.4 15.3571V19.7667H208.819V19.754Z" fill="white"/>
<path d="M218.428 19.754H217.166V11.0877H218.746V17.2306L223.322 11.0877H224.736V19.754H223.156V13.6111L218.428 19.754Z" fill="white"/>
<path d="M228.356 19.754H227.095V11.0877H228.675V17.2306L233.25 11.0877H234.512V19.754H232.932V13.6111L228.356 19.754ZM228.356 8.88289H229.771C229.924 9.35444 230.243 9.67305 230.867 9.67305C231.492 9.67305 231.81 9.35444 231.81 8.88289H233.225C233.225 9.35444 232.906 9.82599 232.6 10.1446C232.129 10.4632 231.492 10.6161 230.867 10.6161C230.077 10.6161 229.605 10.4632 229.134 10.1446C228.662 9.99167 228.344 9.52012 228.344 8.88289H228.356Z" fill="white"/>
<path d="M148.614 30.9438V29.5291H152.552C152.399 28.739 152.081 28.2674 151.456 27.7959C150.819 27.4772 150.195 27.1714 149.405 27.1714C148.614 27.1714 147.99 27.3243 147.353 27.7959L146.728 26.6871C147.518 26.0626 148.461 25.744 149.723 25.744C150.985 25.744 152.094 26.2155 152.871 27.0057C153.661 27.7959 154.133 28.8919 154.133 30.3193C154.133 31.7467 153.661 32.8427 152.871 33.6329C152.081 34.423 150.985 34.8946 149.557 34.8946C148.933 34.8946 148.449 34.7416 147.824 34.576C147.353 34.423 146.881 34.2573 146.562 33.9515L147.2 32.6898C147.824 33.1613 148.614 33.4799 149.405 33.4799C150.195 33.4799 150.819 33.327 151.456 32.8555C151.928 32.3839 152.399 31.9124 152.399 31.1222H148.614V30.9693V30.9438Z" fill="white"/>
<path d="M155.865 34.576V25.9097H157.446V30.0134L160.912 25.9097H162.798L159.179 30.0134L162.964 34.5887H160.912L157.293 30.1791V34.5887H155.878L155.865 34.576Z" fill="white"/>
<path d="M163.104 30.3193C163.104 29.0576 163.576 27.9488 164.366 27.1714C165.156 26.3812 166.252 25.9097 167.68 25.9097C168.941 25.9097 170.038 26.3812 170.993 27.1714C171.784 27.9616 172.255 29.0576 172.255 30.485C172.255 31.7467 171.784 32.8427 170.993 33.6329C170.203 34.4231 169.107 34.8946 167.68 34.8946C166.418 34.8946 165.322 34.4231 164.366 33.6329C163.423 32.6898 163.104 31.581 163.104 30.3193ZM164.685 30.3193C164.685 31.2624 165.003 31.8996 165.475 32.5241C166.099 33.1486 166.737 33.4672 167.527 33.4672C168.47 33.4672 169.107 33.1486 169.579 32.5241C170.05 31.8996 170.369 31.2624 170.369 30.3193C170.369 29.3762 170.05 28.739 169.579 28.1145C168.954 27.49 168.317 27.3243 167.527 27.3243C166.737 27.3243 165.947 27.643 165.475 28.1145C164.85 28.5861 164.685 29.3762 164.685 30.3193Z" fill="white"/>
<path d="M178.716 34.576V27.3244H176.192L176.039 28.9047C175.887 29.8478 175.887 30.7909 175.721 31.4281C175.568 32.0526 175.402 32.6898 175.249 33.1614C175.096 33.6329 174.778 33.9516 174.625 34.1045C174.306 34.2574 174.153 34.4231 173.835 34.576H172.892V32.9957H173.363C173.516 32.9957 173.682 32.8428 173.835 32.6771C173.988 32.5242 174.153 32.2055 174.306 31.8869C174.459 31.5683 174.625 30.9438 174.625 30.3066C174.778 29.5164 174.778 28.7263 174.943 27.7832L175.096 26.0499H180.615V34.7162H178.729V34.5633L178.716 34.576Z" fill="white"/>
<path d="M181.864 30.3193C181.864 29.0576 182.336 27.9488 183.126 27.1714C183.916 26.3812 185.012 25.9097 186.44 25.9097C187.701 25.9097 188.81 26.3812 189.753 27.1714C190.543 27.9616 191.015 29.0576 191.015 30.485C191.015 31.7467 190.543 32.8427 189.753 33.6329C188.963 34.4231 187.867 34.8946 186.44 34.8946C185.178 34.8946 184.082 34.4231 183.126 33.6329C182.336 32.6898 181.864 31.581 181.864 30.3193ZM183.598 30.3193C183.598 31.2624 183.916 31.8996 184.388 32.5241C185.025 33.1486 185.649 33.4672 186.44 33.4672C187.383 33.4672 188.02 33.1486 188.491 32.5241C188.963 31.8996 189.282 31.2624 189.282 30.3193C189.282 29.3762 188.963 28.739 188.491 28.1145C187.867 27.49 187.23 27.3243 186.44 27.3243C185.649 27.3243 184.859 27.643 184.388 28.1145C183.763 28.5861 183.598 29.3762 183.598 30.3193Z" fill="white"/>
<path d="M192.748 34.576V25.9097H197.629V27.3243H194.316V34.576H192.735H192.748Z" fill="white"/>
<path d="M200.306 34.576H199.044V25.9097H200.624V32.0526L205.2 25.9097H206.614V34.576H205.034V28.4331L200.306 34.576Z" fill="white"/>
<path d="M214.656 25.9096V34.5759H213.076V30.9565C212.604 31.428 211.814 31.581 211.024 31.581C210.234 31.581 209.609 31.428 209.138 30.9565C208.666 30.4849 208.348 29.8477 208.348 28.9046V25.9096H209.928V28.4331C209.928 29.6948 210.4 30.1663 211.508 30.1663C212.146 30.1663 212.617 30.0134 213.242 29.5418V25.7567H214.656V25.9096Z" fill="white"/>
<path d="M217.166 34.576V25.9097H222.213V27.3243H218.746V29.5292H221.894V30.9438H218.746V33.1486H222.366V34.5633H217.166V34.576Z" fill="white"/>
<path d="M230.255 32.677L230.88 33.7858C230.561 34.1044 230.255 34.2574 229.784 34.4103C229.312 34.5632 228.675 34.7289 228.203 34.7289C226.941 34.7289 225.833 34.2574 224.89 33.4672C224.099 32.677 223.628 31.581 223.628 30.1536C223.628 28.8919 223.947 27.7959 224.724 27.0057C225.514 26.2155 226.61 25.744 228.038 25.744C229.146 25.744 230.089 26.0626 230.714 26.6871L230.089 27.7959C229.465 27.4772 228.828 27.1714 228.203 27.1714C227.413 27.1714 226.789 27.49 226.151 27.9615C225.68 28.586 225.361 29.2233 225.361 30.1663C225.361 31.1094 225.68 31.7467 226.151 32.3712C226.776 32.9956 227.413 33.1613 228.356 33.1613C228.981 33.3143 229.618 33.1613 230.242 32.6898L230.255 32.677Z" fill="white"/>
<path d="M232.295 34.576V25.9097H233.875V30.0134L237.342 25.9097H239.228L235.596 30.0134L239.381 34.5887H237.495L233.875 30.1791V34.5887H232.295V34.576Z" fill="white"/>
<path d="M242.069 34.576H240.808V25.9097H242.388V32.0526L246.963 25.9097H248.378V34.576H246.798V28.4331L242.069 34.576Z" fill="white"/>
<path d="M251.844 34.576H250.43V25.9097H252.01V32.0526L256.585 25.9097H258V34.576H256.42V28.4331L251.844 34.576ZM251.844 23.8578H253.259C253.412 24.3294 253.731 24.648 254.368 24.648C255.005 24.648 255.311 24.3294 255.311 23.8578H256.725C256.725 24.3294 256.407 24.8009 256.088 25.1196C255.617 25.4382 254.979 25.5911 254.355 25.5911C253.565 25.5911 253.093 25.4382 252.622 25.1196C252.15 24.8009 251.997 24.3294 251.832 23.8578H251.844Z" fill="white"/>
<path d="M146.881 45.1284C146.881 43.8667 147.352 42.7706 148.143 41.9805C148.933 41.1903 150.029 40.7188 151.456 40.7188C152.718 40.7188 153.827 41.1903 154.77 41.9805C155.56 42.7706 156.031 43.8667 156.031 45.294C156.031 46.5558 155.56 47.6518 154.77 48.4419C153.98 49.2321 152.884 49.7037 151.456 49.7037C150.194 49.7037 149.086 49.2321 148.143 48.4419C147.199 47.4989 146.881 46.5558 146.881 45.1284ZM148.461 45.1284C148.461 46.0715 148.78 46.7087 149.251 47.3332C149.889 47.9577 150.513 48.2763 151.303 48.2763C152.246 48.2763 152.884 47.9577 153.355 47.3332C153.827 46.7087 154.145 46.0715 154.145 45.1284C154.145 44.1853 153.827 43.548 153.355 42.9236C152.731 42.2991 152.093 42.1334 151.303 42.1334C150.513 42.1334 149.723 42.452 149.251 42.9236C148.78 43.548 148.461 44.1853 148.461 45.1284Z" fill="white"/>
<path d="M163.117 49.551V42.2993H159.179V49.551H157.599V40.8847H164.532V49.551H163.117Z" fill="white"/>
<path d="M166.89 49.551V40.8847H171.936V42.2993H168.47V44.5041H171.618V45.9188H168.47V48.1236H172.089V49.5382H166.89V49.551Z" fill="white"/>
<path d="M175.569 49.551H173.988V40.8847H176.512C177.136 40.8847 177.62 40.8847 178.092 41.0376C178.564 41.1905 178.882 41.3562 179.201 41.6621C179.519 41.9807 179.672 42.2866 179.672 42.6052C179.825 42.9238 179.825 43.2297 179.825 43.7139C179.825 44.5041 179.507 45.1286 179.035 45.7658C178.398 46.2374 177.773 46.556 176.665 46.556H175.556V49.551H175.569ZM176.677 42.2993H175.569V44.9757H176.677C177.149 44.9757 177.62 44.8227 177.786 44.657C178.105 44.5041 178.258 44.0326 178.258 43.5483C178.258 42.6052 177.786 42.2866 176.677 42.2866V42.2993Z" fill="white"/>
<path d="M179.825 49.551L183.445 40.8847H184.706L188.339 49.551H186.758L185.815 47.3461H182.03L181.087 49.551H179.825ZM184.082 42.7709L182.82 45.9188H185.344L184.082 42.7709Z" fill="white"/>
<path d="M187.854 42.2993V40.8847H194.953V42.2993H192.111V49.551H190.531V42.2993H187.854Z" fill="white"/>
<path d="M195.425 45.1284C195.425 43.8667 195.896 42.7706 196.687 41.9805C197.477 41.1903 198.573 40.7188 200 40.7188C201.262 40.7188 202.371 41.1903 203.314 41.9805C204.104 42.7706 204.575 43.8667 204.575 45.294C204.575 46.5558 204.104 47.6518 203.314 48.4419C202.524 49.2321 201.427 49.7037 200 49.7037C198.738 49.7037 197.642 49.2321 196.687 48.4419C195.743 47.4989 195.425 46.5558 195.425 45.1284ZM197.005 45.1284C197.005 46.0715 197.324 46.7087 197.795 47.3332C198.433 47.9577 199.057 48.2763 199.847 48.2763C200.79 48.2763 201.427 47.9577 201.899 47.3332C202.371 46.7087 202.689 46.0715 202.689 45.1284C202.689 44.1853 202.371 43.548 201.899 42.9236C201.275 42.2991 200.637 42.1334 199.847 42.1334C199.057 42.1334 198.267 42.452 197.795 42.9236C197.324 43.548 197.005 44.1853 197.005 45.1284Z" fill="white"/>
<path d="M207.71 49.551H206.13V40.8847H208.653C209.278 40.8847 209.749 40.8847 210.234 41.0376C210.705 41.1905 211.024 41.3562 211.342 41.6621C211.661 41.9807 211.814 42.2866 211.814 42.6052C211.967 42.9238 211.967 43.2297 211.967 43.7139C211.967 44.5041 211.648 45.1286 211.177 45.7658C210.552 46.2374 209.915 46.556 208.819 46.556H207.71V49.551ZM208.819 42.2993H207.71V44.9757H208.819C209.291 44.9757 209.762 44.8227 209.928 44.657C210.246 44.5041 210.399 44.0326 210.399 43.5483C210.399 42.6052 209.762 42.2866 208.819 42.2866V42.2993Z" fill="white"/>
</g>
</svg>
