<svg width="206" height="86" viewBox="0 0 206 86" fill="none" xmlns="http://www.w3.org/2000/svg">
<g opacity="0.5">
<path d="M64.1872 40.7728L63.3878 38.2649H63.3001L62.5335 40.6852L61.3727 44.3211H65.3371L64.1982 40.7728H64.1872ZM67.0018 48.4608C66.7937 48.4608 66.6732 48.4608 66.5856 48.209L65.7424 45.701H60.9346L60.0804 48.209C60.0585 48.2856 60.0147 48.3623 59.949 48.4061C59.8832 48.4499 59.8066 48.4718 59.719 48.4608H58.58C58.361 48.4608 58.3172 48.3075 58.361 48.1323L62.2159 37.1916C62.4021 36.644 62.5554 36.4907 63.0811 36.4907H63.5849C64.1982 36.4907 64.3406 36.655 64.5048 37.1916L68.3379 48.1323C68.4036 48.2856 68.3379 48.4608 68.1298 48.4608H66.9908H67.0018Z" fill="white"/>
<path d="M71.1194 48.1322C71.1194 48.406 71.0318 48.4607 70.7799 48.4607H69.9366C69.6957 48.4607 69.5752 48.4169 69.5752 48.1322V39.4585C69.5752 37.8924 70.2761 36.5344 72.4555 36.5344H77.0223C77.2961 36.5344 77.3508 36.6549 77.3508 36.8958V37.5967C77.3508 37.8705 77.307 37.9581 77.0223 37.9581H72.4664C71.5246 37.9581 71.1194 38.3524 71.1194 39.2395V48.1431V48.1322Z" fill="white"/>
<path d="M86.4299 48.4607H81.6879C79.4757 48.4607 78.8076 47.1137 78.8076 45.5586V39.4695C78.8076 37.9034 79.6071 36.5344 81.6879 36.5344H86.3423C86.5942 36.5344 86.649 36.6549 86.649 36.8958V37.5967C86.649 37.8486 86.5942 37.9362 86.3423 37.9362H81.7098C80.768 37.9362 80.3627 38.3414 80.3627 39.2285V41.4407H85.7838C86.0357 41.4407 86.0904 41.5393 86.0904 41.7912V42.4373C86.0904 42.6673 86.0357 42.7768 85.7838 42.7768H80.3627V45.7338C80.3627 46.4894 80.7351 47.0042 81.7098 47.0042H86.4299C86.6928 47.0042 86.7585 47.1137 86.7585 47.3656V48.0665C86.7585 48.3074 86.7037 48.4279 86.4299 48.4279" fill="white"/>
<path d="M96.2754 36.8414C96.2754 36.6004 96.374 36.5566 96.604 36.5566H97.5239C97.7539 36.5566 97.8525 36.6004 97.8525 36.8414V48.1654C97.8525 48.4063 97.7649 48.4501 97.5239 48.4501H96.604C96.374 48.4501 96.2754 48.4063 96.2754 48.1654V42.8538H90.263V48.1654C90.263 48.4063 90.1754 48.4501 89.9345 48.4501H88.9926C88.7845 48.4501 88.6641 48.4063 88.6641 48.1654V36.8414C88.6641 36.6004 88.7845 36.5566 88.9926 36.5566H89.9345C90.1754 36.5566 90.263 36.6004 90.263 36.8414V41.5068H96.2754V36.8414Z" fill="white"/>
<path d="M102.934 37.9365H99.6052C99.3971 37.9365 99.3643 37.8708 99.3643 37.6628V36.8304C99.3643 36.6443 99.3643 36.5566 99.6052 36.5566H107.972C108.169 36.5566 108.202 36.6443 108.202 36.8304V37.6628C108.202 37.8708 108.169 37.9365 107.972 37.9365H104.544V48.1763C104.544 48.4172 104.457 48.461 104.238 48.461H103.263C103.033 48.461 102.934 48.4172 102.934 48.1763V37.9365Z" fill="white"/>
<path d="M116.592 46.5772C116.844 46.4677 116.931 46.6101 116.975 46.7086L117.303 47.4095C117.446 47.6724 117.38 47.749 117.216 47.8476C116.099 48.4171 114.861 48.6799 113.613 48.6471C110.426 48.6471 108.531 46.7853 108.531 42.6785C108.531 38.8454 110.645 36.3813 113.733 36.3813C114.828 36.3484 115.924 36.6003 116.909 37.0822C117.052 37.1479 117.117 37.2464 116.997 37.4655L116.614 38.254C116.548 38.3854 116.493 38.4621 116.307 38.3745C115.529 38.024 114.675 37.8488 113.821 37.8488C111.225 37.8488 110.152 40.2143 110.152 42.6785C110.152 45.1426 111.028 47.1905 113.898 47.1905C114.839 47.1796 115.759 46.9715 116.614 46.5772" fill="white"/>
<path d="M121.935 37.9365H118.617C118.409 37.9365 118.376 37.8708 118.376 37.6628V36.8304C118.376 36.6443 118.376 36.5566 118.617 36.5566H126.995C127.203 36.5566 127.236 36.6443 127.236 36.8304V37.6628C127.236 37.8708 127.203 37.9365 126.995 37.9365H123.545V48.1763C123.545 48.4172 123.458 48.461 123.238 48.461H122.264C122.045 48.461 121.935 48.4172 121.935 48.1763V37.9365Z" fill="white"/>
<path d="M133.467 42.6673H130.302V47.0589H133.467C135.428 47.0589 135.899 45.7337 135.899 44.8248C135.899 43.5544 135.055 42.6673 133.467 42.6673ZM130.302 41.3641H133.435C133.686 41.386 133.938 41.3641 134.168 41.2874C134.409 41.2107 134.628 41.0793 134.804 40.915C134.99 40.7508 135.132 40.5427 135.231 40.3127C135.329 40.0827 135.373 39.8308 135.362 39.5899C135.362 39.3599 135.318 39.1409 135.22 38.9218C135.132 38.7138 134.99 38.5276 134.825 38.3743C134.65 38.2209 134.453 38.1114 134.234 38.0457C134.015 37.98 133.785 37.9581 133.555 37.98H130.281V41.375L130.302 41.3641ZM135.548 41.9554C136.151 42.1745 136.676 42.5906 137.027 43.1273C137.377 43.6639 137.552 44.31 137.509 44.9452C137.509 47.0589 135.822 48.4607 133.643 48.4607H129.601C128.988 48.4607 128.736 48.2088 128.736 47.6065V37.3996C128.736 36.7972 128.966 36.5234 129.601 36.5234H133.402C135.483 36.5234 136.994 37.3777 136.994 39.4475C136.994 39.9403 136.873 40.4222 136.611 40.8384C136.359 41.2545 135.986 41.594 135.548 41.8131V41.9445V41.9554Z" fill="white"/>
<path d="M143.806 37.7502C141.364 37.7502 140.279 39.9077 140.279 42.4375C140.279 45.2521 141.101 47.2452 143.751 47.2452C146.401 47.2452 147.277 44.9564 147.277 42.5141C147.277 40.0719 146.631 37.7502 143.85 37.7502H143.806ZM143.773 48.6361C140.433 48.6361 138.746 46.4458 138.746 42.5141C138.746 38.5825 140.86 36.3484 143.806 36.3484C147.146 36.3484 148.887 38.6482 148.887 42.4375C148.887 46.2267 147.124 48.6361 143.773 48.6361Z" fill="white"/>
<path d="M66.5641 62.8185C66.8926 62.6871 66.9912 62.7747 67.0898 63.0266L67.6702 64.2313C67.8235 64.5489 67.7688 64.6693 67.5607 64.7898C66.3779 65.4579 65.0309 65.7864 63.6729 65.7316C59.9931 65.7316 58.3613 63.4647 58.3613 59.7302C58.3613 55.9957 60.5517 53.6082 63.7824 53.6082C64.9213 53.5535 66.0603 53.7944 67.0898 54.3091C67.3417 54.4515 67.3745 54.5391 67.2321 54.9005L66.7065 56.0614C66.5969 56.368 66.5203 56.4337 66.2027 56.3133C65.4689 56.0285 64.6914 55.8752 63.9028 55.8752C62.052 55.8752 61.0883 57.5179 61.0883 59.7192C61.0883 61.9205 61.7892 63.399 64.0014 63.399C64.8994 63.3661 65.7756 63.169 66.5969 62.8185" fill="white"/>
<path d="M77.4174 55.9518H74.3619V65.173C74.3619 65.4578 74.2962 65.5235 73.9567 65.5235H72.1497C71.8868 65.5235 71.7664 65.4359 71.7664 65.173V55.9518H68.7875C68.5466 55.9518 68.459 55.8422 68.459 55.6123V54.1119C68.459 53.8271 68.5247 53.7505 68.7875 53.7505H77.4174C77.6803 53.7505 77.7569 53.8162 77.7569 54.1119V55.6123C77.7569 55.8422 77.6583 55.9518 77.4174 55.9518Z" fill="white"/>
<path d="M83.9552 56.0394H81.7648V59.2372H83.9771C84.4042 59.2372 84.8094 59.073 85.1051 58.7663C85.4008 58.4706 85.576 58.0654 85.576 57.6383C85.576 57.2112 85.4117 56.806 85.1051 56.5103C84.8094 56.2146 84.3932 56.0394 83.9771 56.0394H83.9552ZM81.7648 65.184C81.7648 65.4906 81.6991 65.5344 81.3596 65.5344H79.5855C79.3226 65.5344 79.2021 65.4468 79.2021 65.184V54.7799C79.2021 54.1557 79.4102 53.7505 80.2206 53.7505H84.3494C86.7916 53.7505 88.292 55.2947 88.292 57.4302C88.292 58.5801 87.8101 61.2742 84.0099 61.2742H81.7648V65.173V65.184Z" fill="white"/>
<path d="M91.4563 61.0005H94.1066L93.4605 58.8868L92.8362 56.4774H92.7377L92.0915 58.8868L91.4454 61.0005H91.4563ZM94.709 63.1141H90.843L90.1859 65.2278C90.1202 65.4468 90.0326 65.5454 89.715 65.5454H87.7437C87.5137 65.5454 87.459 65.3811 87.5137 65.2168L91.0402 54.6704C91.2701 53.8929 91.5768 53.7614 92.2667 53.7505H93.2852C94.0409 53.7505 94.3256 53.849 94.5994 54.6704L98.1259 65.2168C98.1697 65.3482 98.1259 65.5454 97.9068 65.5454H95.9027C95.6508 65.5454 95.4865 65.5454 95.4208 65.2825L94.7418 63.1251L94.709 63.1141Z" fill="white"/>
<path d="M106.625 55.9518H103.57V65.173C103.57 65.4578 103.504 65.5235 103.165 65.5235H101.358C101.084 65.5235 100.974 65.4359 100.974 65.173V55.9518H97.9846C97.7546 55.9518 97.667 55.8422 97.667 55.6123V54.1119C97.667 53.8271 97.7327 53.7505 97.9846 53.7505H106.614C106.877 53.7505 106.954 53.8162 106.954 54.1119V55.6123C106.954 55.8422 106.855 55.9518 106.614 55.9518H106.625Z" fill="white"/>
<path d="M116.526 65.5454H111.499C109.002 65.5454 108.389 63.9793 108.389 62.4461V56.8607C108.389 55.2618 109.21 53.7505 111.488 53.7505H116.329C116.591 53.7505 116.646 53.8381 116.646 54.1557V55.5575C116.646 55.8422 116.58 55.9299 116.329 55.9299H112.047C111.17 55.9299 110.951 56.3789 110.951 56.9703V58.2626H115.792C116.055 58.2626 116.11 58.3502 116.11 58.6678V59.971C116.11 60.2448 116.055 60.3543 115.792 60.3543H110.951V62.2708C110.951 63.0484 111.335 63.2784 112.047 63.2784H116.504C116.789 63.2784 116.832 63.3441 116.832 63.6836V65.0854C116.832 65.3592 116.767 65.4687 116.504 65.4687" fill="white"/>
<path d="M121.3 65.173C121.3 65.4797 121.256 65.5235 120.916 65.5235H119.131C118.869 65.5235 118.748 65.4359 118.748 65.173V56.8607C118.748 55.2618 119.526 53.7505 121.847 53.7505H126.71C126.995 53.7505 127.038 53.8381 127.038 54.1557V55.5575C127.038 55.8422 126.973 55.9299 126.71 55.9299H122.406C121.53 55.9299 121.311 56.3679 121.311 56.9703V65.173H121.3Z" fill="white"/>
<path d="M135.833 57.6712L134.333 60.201L131.518 64.8116C131.135 65.4359 130.949 65.5125 130.259 65.5125H129.558C128.682 65.5125 128.463 65.0635 128.463 64.3516V54.079C128.463 53.8381 128.572 53.7505 128.824 53.7505H130.631C130.938 53.7505 130.982 53.8162 130.982 54.079V61.6685H131.08L132.493 59.3139L135.406 54.539C135.79 53.9038 135.976 53.7833 136.644 53.7833H137.345C138.166 53.7833 138.44 54.09 138.44 54.9661V65.2606C138.44 65.4906 138.341 65.5782 138.089 65.5782H136.282C135.976 65.5782 135.91 65.5125 135.91 65.2606V57.6821H135.844L135.833 57.6712Z" fill="white"/>
<path d="M149.348 65.5453H147.508C147.245 65.5453 147.158 65.4577 147.158 65.2277V61.4056C146.489 61.5042 145.821 61.548 145.153 61.548C141.627 61.548 140.4 59.9381 140.4 57.3316V54.0571C140.4 53.8161 140.499 53.7285 140.751 53.7285H142.602C142.886 53.7285 142.952 53.7942 142.952 54.0571V57.0797C142.952 58.6567 143.763 59.2919 145.482 59.2919C146.04 59.2919 146.599 59.2372 147.147 59.1386V54.0571C147.147 53.8161 147.234 53.7285 147.497 53.7285H149.337C149.644 53.7285 149.709 53.7942 149.709 54.0571V65.2058C149.709 65.4577 149.633 65.5234 149.337 65.5234" fill="white"/>
<path d="M160.354 65.5454H155.36C152.863 65.5454 152.25 63.9793 152.25 62.4461V56.8607C152.25 55.2618 153.071 53.7505 155.349 53.7505H160.19C160.453 53.7505 160.508 53.8381 160.508 54.1557V55.5575C160.508 55.8422 160.442 55.9299 160.19 55.9299H155.875C154.999 55.9299 154.78 56.3789 154.78 56.9703V58.2626H159.62C159.883 58.2626 159.938 58.3502 159.938 58.6678V59.971C159.938 60.2448 159.894 60.3543 159.62 60.3543H154.78V62.2708C154.78 63.0484 155.163 63.2784 155.875 63.2784H160.321C160.606 63.2784 160.661 63.3441 160.661 63.6836V65.0854C160.661 65.3592 160.595 65.4687 160.321 65.4687" fill="white"/>
<path d="M170.122 62.8185C170.44 62.6871 170.538 62.7747 170.648 63.0266L171.217 64.2313C171.37 64.5489 171.327 64.6693 171.119 64.7898C169.936 65.4579 168.589 65.7864 167.22 65.7316C163.551 65.7316 161.908 63.4647 161.908 59.7302C161.908 55.9957 164.109 53.6082 167.34 53.6082C168.479 53.5535 169.618 53.7944 170.648 54.3091C170.899 54.4515 170.932 54.5391 170.779 54.9005L170.253 56.0614C170.133 56.368 170.067 56.4337 169.75 56.3133C169.016 56.0285 168.238 55.8752 167.461 55.8752C165.599 55.8752 164.602 57.5179 164.602 59.7192C164.602 61.9205 165.303 63.399 167.515 63.399C168.413 63.3661 169.29 63.169 170.111 62.8185" fill="white"/>
<path d="M179.924 59.2703C181.085 59.6536 181.369 60.3107 181.632 61.3073L182.673 65.217C182.705 65.3265 182.716 65.5455 182.443 65.5455H180.482C180.406 65.5455 180.329 65.5455 180.263 65.4908C180.198 65.447 180.154 65.3813 180.143 65.3046L179.124 61.6577C178.785 60.4968 178.204 60.2559 177.011 60.2559H175.598V65.2498C175.598 65.4908 175.51 65.5127 175.291 65.5127H173.342C173.134 65.5127 173.035 65.5127 173.035 65.2498V54.0025C173.035 53.7616 173.134 53.7287 173.342 53.7287H175.313C175.532 53.7287 175.62 53.7616 175.587 54.0025V58.2956H176.934C177.394 58.3394 177.843 58.2079 178.204 57.9232C178.566 57.6385 178.807 57.2333 178.872 56.7842L179.628 53.9368C179.639 53.8602 179.683 53.7944 179.749 53.7506C179.814 53.7068 179.891 53.6849 179.968 53.7068H181.851C182.136 53.7068 182.114 53.9259 182.092 54.0463L181.315 57.058C181.238 57.4851 181.063 57.8903 180.822 58.2518C180.581 58.6132 180.263 58.9198 179.902 59.1607V59.2812L179.924 59.2703Z" fill="white"/>
<path d="M191.808 57.6712L190.307 60.201L187.493 64.8116C187.109 65.4359 186.923 65.5125 186.222 65.5125H185.554C184.678 65.5125 184.459 65.0635 184.459 64.3516V54.079C184.459 53.8381 184.569 53.7505 184.809 53.7505H186.616C186.923 53.7505 186.978 53.8162 186.978 54.079V61.6685H187.076L188.489 59.3139L191.402 54.539C191.786 53.9038 191.983 53.7833 192.651 53.7833H193.352C194.173 53.7833 194.447 54.09 194.447 54.9661V65.2606C194.447 65.4906 194.348 65.5782 194.096 65.5782H192.289C191.983 65.5782 191.917 65.5125 191.917 65.2606V57.6821H191.818L191.808 57.6712Z" fill="white"/>
<path d="M200.886 61.5041L198.849 65.1728C198.783 65.3043 198.673 65.4138 198.542 65.4904C198.411 65.5562 198.257 65.589 198.104 65.5671H196.023C195.826 65.5671 195.771 65.3809 195.859 65.2386L199.451 59.4452L196.165 54.1008C196.067 53.9584 196.122 53.7722 196.374 53.7722H198.345C198.783 53.7722 198.903 53.8379 199.046 54.1446L200.897 57.4191L202.736 54.1446C202.901 53.8379 203.021 53.7722 203.437 53.7722H205.376C205.628 53.7722 205.66 53.9584 205.562 54.1117L202.375 59.4123L205.956 65.2167C205.956 65.2167 206 65.2824 206 65.3262C206 65.37 206 65.4028 205.978 65.4357C205.956 65.4685 205.934 65.5014 205.901 65.5233C205.869 65.5452 205.825 65.5562 205.792 65.5562H203.678C203.536 65.5671 203.394 65.5452 203.262 65.4685C203.142 65.4028 203.032 65.2933 202.966 65.1619L200.886 61.515V61.5041Z" fill="white"/>
<path d="M66.7503 75.7742L65.2499 78.304L62.4354 82.9146C62.0521 83.5389 61.8659 83.6594 61.1759 83.6594H60.475C59.5989 83.6594 59.3799 83.1994 59.3799 82.4985V72.1821C59.3799 71.9411 59.4784 71.8535 59.7303 71.8535H61.5373C61.844 71.8535 61.8878 71.9192 61.8878 72.1821V79.7496H61.9864L63.3991 77.406L66.3123 72.6201C66.6956 71.9849 66.8817 71.8645 67.5607 71.8645H68.2616C69.083 71.8645 69.3568 72.1711 69.3568 73.0472V83.3418C69.3568 83.5827 69.2582 83.6594 69.0063 83.6594H67.1993C66.8927 83.6594 66.8379 83.5936 66.8379 83.3418V75.7851H66.7613L66.7503 75.7742Z" fill="white"/>
<path d="M81.2069 82.6299H79.4437C79.1589 82.6299 79.0604 82.5423 79.0604 82.2685V77.5593H74.4936V82.2685C74.4936 82.5532 74.4278 82.6299 74.0883 82.6299H72.3032C72.0404 82.6299 71.9199 82.5423 71.9199 82.2685V71.1964C71.9199 70.9336 72.0404 70.8459 72.3032 70.8459H74.0883C74.4278 70.8459 74.4936 70.9117 74.4936 71.1964V75.4128H79.0604V71.1964C79.0604 70.9336 79.1589 70.8459 79.4437 70.8459H81.2069C81.5464 70.8459 81.6121 70.9117 81.6121 71.1964V82.2685C81.6121 82.5532 81.5464 82.6299 81.2069 82.6299Z" fill="white"/>
<path d="M91.5009 74.7556L90.0005 77.2855L87.1859 81.8961C86.8026 82.5203 86.6055 82.6408 85.9156 82.6408H85.2475C84.3714 82.6408 84.1523 82.1808 84.1523 81.4799V71.1635C84.1523 70.9226 84.2619 70.835 84.5028 70.835H86.3098C86.6165 70.835 86.6712 70.9007 86.6712 71.1635V78.7311H86.7698L88.1825 76.3874L91.0957 71.6016C91.479 70.9664 91.6761 70.8459 92.3442 70.8459H93.0451C93.8774 70.8459 94.1402 71.1526 94.1402 72.0287V82.3232C94.1402 82.5641 94.0417 82.6518 93.7898 82.6518H91.9828C91.6761 82.6518 91.6104 82.586 91.6104 82.3232V74.7666H91.5009V74.7556Z" fill="white"/>
<path d="M106.341 80.3738L107.184 80.4614C107.786 80.5052 107.841 80.8009 107.83 81.1623L107.644 85.0502C107.644 85.2692 107.535 85.3897 107.316 85.3897H105.903C105.673 85.3897 105.585 85.2801 105.574 85.0392L105.465 82.597H97.711C96.9334 82.597 96.6377 82.2246 96.6377 81.469V71.1635C96.6377 70.9226 96.7363 70.835 96.9881 70.835H98.839C99.1456 70.835 99.2113 70.9007 99.2113 71.1635V80.4286H103.745V71.1635C103.745 70.9226 103.844 70.835 104.085 70.835H105.936C106.253 70.835 106.308 70.9007 106.308 71.1635L106.341 80.3848V80.3738Z" fill="white"/>
<path d="M116.57 74.7556L115.069 77.2855L112.2 81.8961C111.817 82.5203 111.631 82.6408 110.941 82.6408H110.24C109.364 82.6408 109.145 82.1808 109.145 81.4799V71.1635C109.145 70.9226 109.243 70.835 109.495 70.835H111.302C111.609 70.835 111.652 70.9007 111.652 71.1635V78.7311H111.762L113.175 76.3874L116.088 71.6016C116.471 70.9664 116.657 70.8459 117.336 70.8459H118.037C118.859 70.8459 119.132 71.1526 119.132 72.0287V82.3232C119.132 82.5641 119.023 82.6518 118.771 82.6518H116.964C116.657 82.6518 116.603 82.586 116.603 82.3232V74.7666H116.57V74.7556Z" fill="white"/>
<path d="M124.29 78.0851H126.941L126.294 75.9715L125.67 73.5621H125.583L124.936 75.9715L124.279 78.0851H124.29ZM127.543 80.1988H123.677L123.02 82.3125C122.943 82.5315 122.867 82.641 122.549 82.641H120.578C120.348 82.641 120.293 82.4767 120.348 82.3015L123.874 71.7551C124.115 70.9775 124.411 70.8461 125.101 70.8242H126.108C126.864 70.8242 127.16 70.9228 127.422 71.7551L130.949 82.3015C130.949 82.3015 130.982 82.3782 130.971 82.422C130.971 82.4658 130.96 82.4986 130.938 82.5315C130.916 82.5644 130.883 82.5972 130.85 82.6082C130.817 82.6301 130.774 82.641 130.73 82.6301H128.682C128.43 82.6301 128.255 82.5972 128.2 82.3563L127.543 80.1988Z" fill="white"/>
<path d="M139.458 73.0363H136.403V82.2685C136.403 82.5532 136.326 82.6299 135.998 82.6299H134.191C133.917 82.6299 133.807 82.5423 133.807 82.2685V73.0363H130.829C130.588 73.0363 130.5 72.9267 130.5 72.6968V71.1964C130.5 70.9117 130.577 70.8459 130.829 70.8459H139.458C139.721 70.8459 139.798 70.9117 139.798 71.1964V72.6968C139.798 72.6968 139.798 72.7844 139.798 72.8391C139.798 72.8939 139.754 72.9268 139.721 72.9596C139.688 72.9925 139.645 73.0144 139.601 73.0363C139.557 73.0472 139.513 73.0582 139.458 73.0472V73.0363Z" fill="white"/>
<path d="M148.624 74.7556L147.124 77.2855L144.309 81.8961C143.926 82.5203 143.74 82.6408 143.05 82.6408H142.349C141.473 82.6408 141.254 82.1808 141.254 81.4799V71.1635C141.254 70.9226 141.363 70.835 141.615 70.835H143.422C143.729 70.835 143.773 70.9007 143.773 71.1635V78.7311H143.871L145.284 76.3874L148.208 71.6016C148.591 70.9664 148.778 70.8459 149.457 70.8459H150.158C150.979 70.8459 151.253 71.1526 151.253 72.0287V82.3232C151.253 82.5641 151.154 82.6518 150.902 82.6518H149.095C148.789 82.6518 148.723 82.586 148.723 82.3232V74.7666H148.646L148.624 74.7556Z" fill="white"/>
<path d="M158.755 77.3621H156.335V80.3738H158.755C158.963 80.3957 159.182 80.3738 159.379 80.3081C159.576 80.2424 159.763 80.1329 159.916 79.9905C160.069 79.8481 160.201 79.6729 160.288 79.4867C160.376 79.2896 160.42 79.0815 160.42 78.8734C160.42 78.6654 160.376 78.4573 160.288 78.2602C160.201 78.063 160.08 77.8988 159.916 77.7564C159.763 77.614 159.576 77.5045 159.379 77.4388C159.182 77.3731 158.963 77.3512 158.755 77.3731V77.3621ZM156.335 75.3032H158.624C158.788 75.3251 158.952 75.3032 159.105 75.2594C159.259 75.2156 159.412 75.128 159.533 75.0185C159.653 74.909 159.752 74.7666 159.806 74.6242C159.872 74.4709 159.894 74.3066 159.883 74.1423C159.883 73.989 159.861 73.8357 159.806 73.7043C159.752 73.5619 159.653 73.4414 159.544 73.3319C159.434 73.2334 159.303 73.1567 159.149 73.1019C159.007 73.0581 158.854 73.0472 158.7 73.0581H156.324V75.2923L156.335 75.3032ZM161.263 76.1793C161.821 76.4093 162.292 76.8145 162.621 77.3293C162.939 77.844 163.103 78.4354 163.07 79.0487C163.07 81.1623 161.296 82.6408 159.04 82.6408H154.812C154.002 82.6408 153.794 82.3342 153.794 81.6113V71.8863C153.794 71.1854 154.002 70.835 154.812 70.835H158.941C160.978 70.835 162.566 71.6892 162.566 73.8138C162.566 74.2738 162.446 74.7118 162.216 75.1061C161.986 75.5004 161.657 75.8289 161.274 76.0589V76.1793H161.263Z" fill="white"/>
<path d="M31.6396 6.04541L52.7434 18.1798L63.2789 12.0798L31.6396 6.04541Z" fill="#A0CDEB"/>
<path d="M0 0L21.1038 12.1344L31.6392 6.04529L0 0Z" fill="#F7403A"/>
<path d="M21.1143 24.3018L42.218 36.4361L52.7535 30.347L21.1143 24.3018Z" fill="#E1E6E6"/>
<path d="M63.2784 12.0796L52.7539 30.3469V18.1796L63.2784 12.0796Z" fill="#0055A0"/>
<path d="M52.754 30.3357L42.2295 48.603V36.4248L52.754 30.3357Z" fill="#AFAFAF"/>
<path d="M31.6388 6.04541L21.1143 24.3018V12.1345L31.6388 6.04541Z" fill="#AA272F"/>
</g>
</svg>
