<svg width="210" height="39" viewBox="0 0 210 39" fill="none" xmlns="http://www.w3.org/2000/svg">
<path opacity="0.7" d="M86.4788 17.0621H69.2869V8.69325H92.3824V4.47638H65.2646V33.6701H86.4139C91.1497 33.6701 94.8476 29.9722 94.8476 25.2364C94.8476 21.3439 91.7336 17.0621 86.4788 17.0621ZM86.4139 29.4532H69.222V21.0195H86.4139C88.7494 21.0195 90.6307 22.9009 90.6307 25.2364C90.6307 27.5719 88.7494 29.4532 86.4139 29.4532Z" fill="white"/>
<path opacity="0.7" d="M62.4744 19.0732C62.4744 23.0955 60.8525 26.7285 58.1926 29.3884C55.5328 32.0482 51.8998 33.6701 47.8775 33.6701H30.8154V29.4532H47.8775C52.9378 29.4532 57.1546 25.8202 58.0629 21.0195H35.681V16.9972H58.0629C57.0898 12.2614 52.9378 8.62838 47.8775 8.62838H30.8154V4.41151H47.8775C55.922 4.47639 62.4744 11.0288 62.4744 19.0732Z" fill="white"/>
<path opacity="0.7" d="M25.6905 18.684C27.1177 17.1919 28.026 15.1159 28.026 12.8453C28.026 8.17426 24.2632 4.41151 19.6571 4.41151H0V33.6052H20.3707C25.0417 33.6052 28.8045 29.8425 28.8045 25.1715C28.8045 22.5765 27.5718 20.241 25.6905 18.684ZM19.5922 8.69326C21.8628 8.69326 23.7442 10.5746 23.7442 12.8453C23.7442 15.1159 21.8628 16.9973 19.5922 16.9973H4.02224V8.69326H19.5922ZM20.3707 29.4532H4.02224V21.0195H20.3707C22.7062 21.0195 24.5876 22.9009 24.5876 25.2364C24.5876 27.5719 22.7062 29.4532 20.3707 29.4532Z" fill="white"/>
<path opacity="0.5" d="M115.672 33.6701H120.018V29.1289H152.132V4.41151H115.672V33.6701ZM120.018 8.69326H147.785V24.8471H120.018V8.69326Z" fill="white"/>
<path opacity="0.5" d="M156.284 29.1289H181.001V33.6701H185.283V29.1289H210V4.41151H156.219V29.1289H156.284ZM185.348 8.69326H205.783V24.8471H185.348V8.69326ZM160.565 8.69326H181.001V24.8471H160.565V8.69326Z" fill="white"/>
<path opacity="0.5" d="M107.304 0H102.957V38.2113H107.304V0Z" fill="white"/>
</svg>
