<svg width="155" height="47" viewBox="0 0 155 47" fill="none" xmlns="http://www.w3.org/2000/svg">
<g opacity="0.5">
<path fill-rule="evenodd" clip-rule="evenodd" d="M16.4854 26.383L20.6038 19.7872H29.6667C33.3082 19.7872 36.2632 16.8325 36.2632 13.1915C36.2632 9.55045 33.3082 6.59575 29.6667 6.59575H13.193V32.9787H0V0H36.2749C43.5345 0 49.4678 5.93268 49.4678 13.1915C49.4678 20.4503 43.5345 26.383 36.2749 26.383H16.4854ZM88.4418 13.0984H69.2573L65.9649 19.6942H88.5116C87.1737 23.5795 83.4741 26.3946 79.1462 26.3946H56.0643L52.7719 32.9904H85.7543C94.8289 32.9904 102.24 25.5687 102.24 16.5068C102.24 7.44493 94.8172 0.0232654 85.7543 0.0232654H56.076L52.7835 6.61901H79.1695C83.3926 6.59575 87.0457 9.3178 88.4418 13.0984ZM118.725 32.9787H105.532L122.018 0H138.503L154.988 32.9787H141.795L138.549 26.383H125.298L128.591 19.7872H135.292L130.324 9.69005L118.725 32.9787Z" fill="white"/>
<path fill-rule="evenodd" clip-rule="evenodd" d="M65.453 44.8559L66.1976 43.5414H67.838C68.5011 43.5414 69.0246 42.9481 69.0246 42.2269C69.0246 41.5057 68.4895 40.9124 67.838 40.9124H64.8596V46.1704H62.4747V39.5863H69.0246C70.3393 39.5863 71.4096 40.7728 71.4096 42.2153C71.4096 43.6577 70.3393 44.8442 69.0246 44.8442H65.453V44.8559ZM148.45 46.1704H146.065V39.5863H148.45V44.1928L152.615 39.5863H155V46.1704H152.615V41.5638L148.45 46.1704ZM138.038 46.1704H135.653V39.5863H138.038V44.1928L142.203 39.5863H144.588V46.1704H142.203V41.5638L138.038 46.1704ZM37.6709 42.2153H34.2156L33.6223 43.5297H37.6942C37.4499 44.3091 36.7868 44.8675 36.0073 44.8675H31.8423L31.249 46.182H37.194C38.8343 46.182 40.1723 44.7046 40.1723 42.8899C40.1723 41.0752 38.8343 39.5979 37.194 39.5979H31.8423L31.249 40.9124H36.0073C36.7635 40.9124 37.4266 41.4591 37.6709 42.2153ZM54.5519 43.5646H58.0072L58.6005 42.2501H54.5286C54.773 41.4708 55.4361 40.9124 56.2156 40.9124H60.3806L60.9739 39.5979H55.0289C53.3885 39.5979 52.0506 41.0752 52.0506 42.8899C52.0506 44.7046 53.3885 46.182 55.0289 46.182H60.3806L60.9739 44.8675H56.2156C55.4594 44.8675 54.8079 44.3208 54.5519 43.5646ZM84.7887 39.5979C82.3223 39.5979 80.3213 41.0752 80.3213 42.8899C80.3213 44.7046 82.3223 46.182 84.7887 46.182C87.2551 46.182 89.2562 44.7046 89.2562 42.8899C89.2562 41.0752 87.2551 39.5979 84.7887 39.5979ZM84.7887 40.9124C85.9405 40.9124 86.8712 41.7965 86.8712 42.8899C86.8712 43.9834 85.9405 44.8675 84.7887 44.8675C83.6369 44.8675 82.7062 43.9834 82.7062 42.8899C82.7062 41.7965 83.6369 40.9124 84.7887 40.9124ZM6.54995 39.5979H8.93493V46.182H6.54995V42.2385L4.46746 44.8675L2.38497 42.2385V46.182H0V39.5979H2.38497L4.46746 42.2269L6.54995 39.5979ZM27.3748 39.5979H29.7598V46.182H27.3748V43.553H23.2099V46.182H20.8249V39.5979H23.2099V42.2269H27.3748V39.5979ZM48.1997 39.5979H50.5847V46.182H48.1997V43.553H44.0348V46.182H41.6498V39.5979H44.0348V42.2269H48.1997V39.5979ZM72.8871 46.182V39.5979H80.3213L79.7279 40.9124H75.2605V46.1704H72.8871V46.182ZM16.9624 39.6095H19.3474V46.1936H16.9624V41.5871L12.7974 46.1936H10.4124V39.6095H12.7974V44.2161L16.9624 39.6095ZM96.9812 44.8559L97.7257 43.5414H99.3661C100.018 43.5414 100.553 42.9481 100.553 42.2269C100.553 41.5057 100.018 40.9124 99.3661 40.9124H96.3878V46.182H94.0029V39.5979H100.553C101.867 39.5979 102.938 40.7844 102.938 42.2269C102.938 43.6693 101.867 44.8559 100.553 44.8559H96.9812ZM133.582 40.9124L134.175 39.5979H128.23C126.59 39.5979 125.252 41.0752 125.252 42.8899C125.252 44.7046 126.59 46.182 128.23 46.182H133.582L134.175 44.8675H129.417C128.44 44.8675 127.637 43.9834 127.637 42.8899C127.637 41.7965 128.44 40.9124 129.417 40.9124H133.582ZM123.169 40.9124L123.763 39.5979H117.818C116.177 39.5979 114.839 41.0752 114.839 42.8899C114.839 44.7046 116.177 46.182 117.818 46.182H123.169L123.763 44.8675H119.004C118.027 44.8675 117.224 43.9834 117.224 42.8899C117.224 41.7965 118.027 40.9124 119.004 40.9124H123.169ZM108.883 39.5979C106.416 39.5979 104.415 41.0752 104.415 42.8899C104.415 44.7046 106.416 46.182 108.883 46.182C111.349 46.182 113.35 44.7046 113.35 42.8899C113.35 41.0752 111.349 39.5979 108.883 39.5979ZM108.883 40.9124C110.035 40.9124 110.965 41.7965 110.965 42.8899C110.965 43.9834 110.035 44.8675 108.883 44.8675C107.731 44.8675 106.8 43.9834 106.8 42.8899C106.8 41.7965 107.743 40.9124 108.883 40.9124Z" fill="white"/>
</g>
</svg>
