<svg width="15" height="13" viewBox="0 0 15 13" fill="none" xmlns="http://www.w3.org/2000/svg">
<path fill-rule="evenodd" clip-rule="evenodd" d="M12.9545 0H2.04545C0.886364 0 0 0.886364 0 2.04545V10.2273C0 11.3864 0.886364 12.2727 2.04545 12.2727H12.9545C14.1136 12.2727 15 11.3864 15 10.2273V2.04545C15 0.886364 14.1136 0 12.9545 0ZM2.04546 1.36362H12.9545C13.2273 1.36362 13.4318 1.49998 13.5682 1.77271L7.5 5.99998L1.43182 1.77271C1.56819 1.49998 1.77273 1.36362 2.04546 1.36362ZM1.36364 10.2272C1.36364 10.6363 1.63636 10.909 2.04545 10.909H12.9545C13.3636 10.909 13.6364 10.6363 13.6364 10.2272V3.34083L7.90909 7.36356C7.77273 7.43174 7.63636 7.49992 7.5 7.49992C7.36364 7.49992 7.22727 7.43174 7.09091 7.36356L1.36364 3.34083V10.2272Z" fill="#145976"/>
</svg>
