<svg width="65" height="65" viewBox="0 0 65 65" fill="none" xmlns="http://www.w3.org/2000/svg">
<circle cx="32.5" cy="32.5" r="32.5" fill="url(#paint0_linear_2005_636)"/>
<path d="M12.0802 32.7481H51.9282M32.0042 17.743V32.7691M51.9324 32.7985C51.9324 22.0086 43.4311 13.1625 32.7858 12.7469C32.5266 12.7385 32.2675 12.7301 32.0042 12.7301M12.6862 27.8443C12.2892 29.4188 12.0802 31.0687 12.0802 32.7691M21.7015 27.8443C21.4591 29.339 21.3254 30.968 21.3254 32.7439M42.6872 32.7439C42.6872 19.7162 34.5245 14.1239 32.0042 12.7259M26.7421 23.6417C28.2426 23.9608 29.9854 24.1539 32 24.1539M32.0042 24.1539C43.009 24.1539 45.8594 18.3559 45.8594 18.3559M32.0042 48.299V32.7397M12.076 32.7607C12.076 43.8151 20.9994 52.7787 32 52.7787M32 52.7787C33.8515 52.7787 35.6404 52.5268 37.3415 52.0524M32 52.7787C32 52.7787 21.3212 48.4921 21.3212 32.7607M42.2232 38.1389C42.5158 36.5141 42.683 34.7297 42.683 32.7607M37.3666 41.8838C35.841 41.5522 34.0647 41.3506 32 41.3506M31.9958 41.3506C20.991 41.3506 18.1406 47.1487 18.1406 47.1487M52.5635 41.8629C51.7108 41.8629 51.2093 40.893 51.7108 40.2003C51.7317 40.1709 51.7526 40.1457 51.7735 40.1163C52.0577 39.7469 52.2291 39.285 52.2291 38.7812C52.2291 37.4251 50.9961 36.3587 49.5918 36.6526C48.7601 36.8248 48.0913 37.5091 47.9325 38.3488C47.7988 39.0415 47.9952 39.6923 48.3881 40.1709L48.4006 40.1835C48.9481 40.8552 48.4759 41.8629 47.6107 41.8629H41.1115V48.4586C41.1115 49.2856 42.0728 49.7853 42.7081 49.2647L42.7206 49.2521C43.1971 48.8574 43.8449 48.6601 44.5345 48.7944C45.3704 48.9582 46.0475 49.6257 46.2231 50.4612C46.5156 51.8677 45.454 53.1104 44.104 53.1104C43.6025 53.1104 43.1427 52.9383 42.7749 52.6528C42.7457 52.6318 42.7206 52.6108 42.6913 52.5898C42.0351 52.107 41.1073 52.5898 41.1073 53.4085V60H59V41.8629H52.5593H52.5635ZM26.9176 12.6881C26.182 12.5621 25.4966 12.7762 24.9909 13.2003C24.1968 13.8552 22.9972 13.2884 22.9972 12.2556V6H16.4311C15.8042 6 15.4197 6.73472 15.8209 7.22594L15.8293 7.23853C16.2514 7.75074 16.4646 8.43928 16.3392 9.174C16.1762 10.1312 15.4238 10.9121 14.4751 11.0969C12.9537 11.395 11.6246 10.232 11.6246 8.75836C11.6246 8.20837 11.8085 7.70036 12.122 7.29731C12.1429 7.27212 12.1638 7.24273 12.1847 7.21754C12.5525 6.71373 12.1847 6.0042 11.5619 6.0042H5V24.0784H11.6539C12.2265 24.0784 12.5399 23.4066 12.1763 22.9658L12.168 22.9574C11.7458 22.4452 11.5327 21.7566 11.6581 21.0219C11.8211 20.0647 12.5734 19.2838 13.5221 19.0991C15.0435 18.801 16.3726 19.9639 16.3726 21.4376C16.3726 21.9876 16.1887 22.4956 15.8752 22.8986C15.8543 22.9238 15.8334 22.9532 15.8167 22.9784C15.4824 23.436 15.8167 24.0826 16.381 24.0826H22.9972V17.8689C22.9972 16.8571 24.1382 16.2651 24.9533 16.8571C24.9867 16.8823 25.0159 16.9033 25.0494 16.9285C25.4506 17.2434 25.9563 17.4281 26.5039 17.4281C27.9709 17.4281 29.1286 16.093 28.8319 14.5648C28.648 13.6117 27.8706 12.856 26.9176 12.6923V12.6881Z" stroke="white" stroke-width="1.5" stroke-miterlimit="10" stroke-linecap="round" stroke-linejoin="round"/>
<defs>
<linearGradient id="paint0_linear_2005_636" x1="0" y1="32.5" x2="65" y2="32.5" gradientUnits="userSpaceOnUse">
<stop stop-color="#145976"/>
<stop offset="0.26" stop-color="#165A76"/>
<stop offset="0.4" stop-color="#1E5D77"/>
<stop offset="0.51" stop-color="#2B637A"/>
<stop offset="0.61" stop-color="#3F6B7E"/>
<stop offset="0.7" stop-color="#587683"/>
<stop offset="0.78" stop-color="#778388"/>
<stop offset="0.85" stop-color="#9B938F"/>
<stop offset="0.92" stop-color="#C6A698"/>
<stop offset="0.99" stop-color="#F5BAA1"/>
<stop offset="1" stop-color="#FFBFA3"/>
</linearGradient>
</defs>
</svg>
