<svg width="65" height="65" viewBox="0 0 65 65" fill="none" xmlns="http://www.w3.org/2000/svg">
<circle cx="32.5" cy="32.5" r="32.5" fill="url(#paint0_linear_2005_642)"/>
<path d="M22.0448 13.6717C21.9271 13.249 21.8618 12.7998 21.8618 12.3374C21.8618 9.72154 23.9672 7.59451 26.5564 7.59451C29.1457 7.59451 31.2511 9.72154 31.2511 12.3374V56.6484C21.7571 62.1839 18.9456 52.8039 18.9456 52.8039M21.8356 12.3902C21.221 12.1524 20.541 12.0071 19.8479 12.0071C16.8271 12.0071 14.3686 14.4909 14.3686 17.5427C14.3686 20.5945 16.8271 23.0783 19.8479 23.0783M14.3686 19.564C11.5831 19.564 9.33387 21.8364 9.33387 24.6504C9.33387 27.4644 12.1454 30.3049 14.9309 30.3049M10.9816 28.4156C9.21617 29.2348 8 31.0447 8 33.1321C8 35.999 10.3016 39.2358 13.1393 39.2358C13.1393 39.2358 16.7355 39.7246 18.1086 38.3374M10.4062 38.1789C10.4062 38.1789 6.20843 43.7276 13.0478 47.7175M14.3686 44.0976C14.3686 44.0976 8.77155 53.7022 20.4102 56.3049M25.1049 33.0264C25.1049 33.0264 16.8271 33.3699 18.9586 41.3892M31.2642 27.5965C31.2642 27.5965 28.9626 24.6372 23.8756 27.5965M22.751 46.9248C24.9872 50.9939 31.2511 47.7175 31.2511 47.7175M25.1049 19.0091C26.2295 21.4929 31.2511 19.0091 31.2511 19.0091M25.6541 40.0285C27.9426 41.3628 31.2511 40.0285 31.2511 40.0285M32.5588 59H34.612L35.1612 52.6321C37.672 52.0376 39.9997 50.9675 42.0528 49.5142L47.0875 53.7815L51.8345 48.9858L47.4929 43.7541C48.7745 41.7195 49.6899 39.4339 50.1868 36.9898L57 36.3953V29.6047L50.1868 29.0102C49.703 26.5661 48.7745 24.2805 47.4929 22.2459L51.8345 17.0142L47.0875 12.2185L42.0528 16.4858C39.9997 15.0325 37.672 13.9624 35.1612 13.3679L34.612 7H32.4019M33.7096 45.0884C39.2674 43.939 43.4521 38.9715 43.4521 33.0132C43.4521 27.0549 39.1628 21.9685 33.5004 20.8984" stroke="white" stroke-width="1.5" stroke-linecap="round" stroke-linejoin="round"/>
<defs>
<linearGradient id="paint0_linear_2005_642" x1="0" y1="32.5" x2="65" y2="32.5" gradientUnits="userSpaceOnUse">
<stop stop-color="#145976"/>
<stop offset="0.26" stop-color="#165A76"/>
<stop offset="0.4" stop-color="#1E5D77"/>
<stop offset="0.51" stop-color="#2B637A"/>
<stop offset="0.61" stop-color="#3F6B7E"/>
<stop offset="0.7" stop-color="#587683"/>
<stop offset="0.78" stop-color="#778388"/>
<stop offset="0.85" stop-color="#9B938F"/>
<stop offset="0.92" stop-color="#C6A698"/>
<stop offset="0.99" stop-color="#F5BAA1"/>
<stop offset="1" stop-color="#FFBFA3"/>
</linearGradient>
</defs>
</svg>
