<svg width="19" height="20" viewBox="0 0 19 20" fill="none" xmlns="http://www.w3.org/2000/svg">
<path fill-rule="evenodd" clip-rule="evenodd" d="M17.8182 6.56073L9.63636 0.204313C9.27273 -0.0681044 8.81818 -0.0681044 8.54545 0.204313L0.363636 6.56073C0.0909091 6.74234 0 7.01476 0 7.28717V17.2758C0 18.8195 1.18182 20 2.72727 20H15.4545C17 20 18.1818 18.8195 18.1818 17.2758V7.28717C18.1818 7.01476 18.0909 6.74234 17.8182 6.56073ZM10.9085 18.1837H7.27214V10.9193H10.9085V18.1837ZM15.4541 18.1838C15.9995 18.1838 16.3632 17.8206 16.3632 17.2758V7.74113L9.09044 2.11117L1.81771 7.74113V17.2758C1.81771 17.8206 2.18134 18.1838 2.7268 18.1838H5.45407V10.0113C5.45407 9.46644 5.81771 9.10322 6.36316 9.10322H11.8177C12.3632 9.10322 12.7268 9.46644 12.7268 10.0113V18.1838H15.4541Z" fill="white"/>
</svg>
