<svg width="65" height="65" viewBox="0 0 65 65" fill="none" xmlns="http://www.w3.org/2000/svg">
<circle cx="32.5" cy="32.5" r="32.5" fill="url(#paint0_linear_2005_630)"/>
<path d="M30.395 14.3252C30.395 14.3252 30.3879 14.3335 30.3848 14.3376C30.3807 14.3428 30.3767 14.347 30.3726 14.3522C30.3695 14.3563 30.3665 14.3605 30.3634 14.3647C30.3594 14.3699 30.3563 14.3751 30.3522 14.3803C30.3492 14.3844 30.3461 14.3886 30.3431 14.3938C30.339 14.399 30.3359 14.4042 30.3329 14.4094C30.3298 14.4135 30.3278 14.4187 30.3247 14.4229C30.3217 14.4281 30.3176 14.4343 30.3145 14.4395C30.3115 14.4437 30.3094 14.4489 30.3074 14.453C30.3043 14.4582 30.3013 14.4645 30.2982 14.4707C30.2962 14.4759 30.2942 14.48 30.2911 14.4852C30.288 14.4915 30.286 14.4967 30.2829 14.5029C30.2809 14.5081 30.2789 14.5133 30.2768 14.5175C30.2748 14.5237 30.2717 14.5289 30.2697 14.5351C30.2677 14.5403 30.2656 14.5455 30.2636 14.5507C30.2616 14.557 30.2595 14.5632 30.2575 14.5694C30.2554 14.5746 30.2544 14.5798 30.2524 14.585C30.2504 14.5913 30.2483 14.5975 30.2473 14.6037C30.2453 14.6089 30.2442 14.6152 30.2432 14.6204C30.2412 14.6266 30.2402 14.6328 30.2391 14.6391C30.2381 14.6443 30.2371 14.6505 30.2351 14.6557C30.234 14.662 30.232 14.6682 30.231 14.6744C30.231 14.6807 30.229 14.6859 30.2279 14.6921C30.2279 14.6983 30.2259 14.7046 30.2249 14.7108C30.2249 14.717 30.2239 14.7233 30.2228 14.7285C30.2228 14.7347 30.2218 14.741 30.2208 14.7472C30.2208 14.7534 30.2208 14.7597 30.2198 14.7659C30.2198 14.7721 30.2198 14.7784 30.2198 14.7846C30.2198 14.7908 30.2198 14.7971 30.2198 14.8033C30.2198 14.8096 30.2198 14.8158 30.2198 14.822C30.2198 14.8283 30.2198 14.8345 30.2198 14.8407C30.2198 14.8459 30.2198 14.8522 30.2198 14.8574L30.8453 24.4892C30.8707 24.878 31.1876 25.1753 31.5635 25.1753C31.5798 25.1753 31.5961 25.1753 31.6114 25.1732C32.0087 25.1462 32.3082 24.7959 32.2827 24.3915L32.0168 20.3032L37.467 19.8791C37.7308 19.8583 37.9631 19.692 38.07 19.4446C38.178 19.1972 38.1434 18.9103 37.9814 18.6972L36.6367 16.9218L37.9132 14.7046C38.0486 14.4686 38.0446 14.1765 37.904 13.9447C37.7634 13.7129 37.5067 13.5799 37.2398 13.5996L30.885 14.0757C30.885 14.0757 30.8748 14.0757 30.8697 14.0767C30.8626 14.0767 30.8565 14.0778 30.8504 14.0788C30.8453 14.0788 30.8392 14.0809 30.8341 14.0809C30.828 14.0809 30.8208 14.083 30.8147 14.084C30.8096 14.084 30.8045 14.0861 30.7984 14.0871C30.7923 14.0882 30.7852 14.0892 30.7791 14.0913C30.774 14.0923 30.7689 14.0944 30.7628 14.0954C30.7567 14.0975 30.7505 14.0986 30.7434 14.1006C30.7383 14.1017 30.7332 14.1038 30.7281 14.1058C30.722 14.1079 30.7159 14.11 30.7098 14.1121C30.7047 14.1141 30.6996 14.1162 30.6945 14.1173C30.6884 14.1193 30.6823 14.1214 30.6772 14.1235C30.6721 14.1256 30.667 14.1277 30.6619 14.1297C30.6568 14.1318 30.6507 14.1349 30.6456 14.137C30.6405 14.1391 30.6354 14.1422 30.6303 14.1443C30.6252 14.1464 30.6191 14.1495 30.614 14.1526C30.6089 14.1557 30.6038 14.1578 30.5988 14.1609C30.5937 14.164 30.5886 14.1661 30.5835 14.1692C30.5784 14.1724 30.5733 14.1755 30.5682 14.1786C30.5631 14.1817 30.558 14.1848 30.5529 14.1879C30.5478 14.1911 30.5437 14.1942 30.5386 14.1983C30.5336 14.2015 30.5295 14.2046 30.5244 14.2087C30.5193 14.2119 30.5152 14.216 30.5101 14.2191C30.506 14.2223 30.501 14.2264 30.4959 14.2295C30.4918 14.2337 30.4867 14.2368 30.4826 14.241C30.4785 14.2451 30.4734 14.2482 30.4694 14.2524C30.4653 14.2566 30.4612 14.2597 30.4571 14.2638C30.4531 14.268 30.448 14.2721 30.4439 14.2763C30.4398 14.2805 30.4358 14.2846 30.4317 14.2888C30.4276 14.2929 30.4235 14.2971 30.4195 14.3013C30.4154 14.3054 30.4123 14.3096 30.4083 14.3137C30.4042 14.3179 30.4001 14.3231 30.396 14.3272L30.395 14.3252ZM35.2003 17.427L36.0265 18.5174L31.9221 18.8365L31.7051 15.4873L35.9786 15.1671L35.1504 16.6058C35.0017 16.8646 35.022 17.19 35.2013 17.427H35.2003ZM11.8951 47.7643C12.0031 47.8235 12.1192 47.8516 12.2343 47.8516C12.491 47.8516 12.7396 47.7102 12.87 47.4628L16.7055 40.148C16.7106 40.1376 16.7156 40.1272 16.7207 40.1168C16.7269 40.1064 16.7319 40.097 16.7381 40.0867C16.9255 39.7291 16.7931 39.2831 16.4426 39.0919L14.8687 38.2322L17.9004 36.3102L18.0237 40.1885C17.8424 40.2405 17.6814 40.3663 17.5846 40.5492C17.3972 40.9068 17.5296 41.3527 17.88 41.544L18.4363 41.8475C18.5422 41.9058 18.6594 41.9349 18.7755 41.9349C18.9079 41.9349 19.0393 41.8974 19.1555 41.8247C19.3735 41.6864 19.5039 41.439 19.4947 41.1771L19.2991 34.9921C19.291 34.7302 19.1463 34.4922 18.9191 34.3685C18.692 34.2448 18.4179 34.2531 18.1999 34.3924L13.0483 37.6574C12.8303 37.7956 12.6999 38.043 12.709 38.305C12.7172 38.5669 12.8618 38.805 13.089 38.9287L15.1275 40.042L11.5996 46.7705C11.4122 47.1281 11.5446 47.573 11.8951 47.7653V47.7643ZM9.29428 52.7236C9.40227 52.7829 9.5184 52.811 9.63352 52.811C9.89023 52.811 10.1388 52.6696 10.2692 52.4222L10.8122 51.3869C10.9996 51.0293 10.8672 50.5833 10.5167 50.3921C10.1663 50.2008 9.72928 50.336 9.54183 50.6935L8.99885 51.7289C8.81141 52.0864 8.94384 52.5324 9.29428 52.7236ZM45.0798 34.3664C44.8527 34.4901 44.708 34.7281 44.6999 34.9901L44.5043 41.175C44.4961 41.438 44.6255 41.6843 44.8435 41.8226C44.9596 41.8964 45.091 41.9328 45.2235 41.9328C45.3396 41.9328 45.4568 41.9037 45.5627 41.8455L46.1189 41.5419C46.4694 41.3507 46.6018 40.9058 46.4144 40.5471C46.3186 40.3642 46.1566 40.2395 45.9753 40.1864L46.0986 36.3081L49.1303 38.2301L47.5563 39.0898C47.2059 39.2811 47.0735 39.726 47.2609 40.0846C47.266 40.095 47.2721 40.1054 47.2782 40.1158C47.2833 40.1262 47.2884 40.1365 47.2935 40.1469L51.6699 48.4929C51.7993 48.7403 52.0489 48.8817 52.3056 48.8817C52.4197 48.8817 52.5369 48.8536 52.6448 48.7944C52.9953 48.6031 53.1277 48.1572 52.9403 47.7996L48.8715 40.0399L50.91 38.9266C51.1371 38.8029 51.2818 38.5648 51.29 38.3029C51.2981 38.0399 51.1687 37.7936 50.9507 37.6553L45.7991 34.3903C45.5811 34.252 45.306 34.2427 45.0798 34.3664ZM53.7308 52.4222C53.8602 52.6696 54.1087 52.811 54.3665 52.811C54.4806 52.811 54.5977 52.7829 54.7057 52.7236C55.0562 52.5324 55.1886 52.0875 55.0011 51.7289L54.6741 51.1062C54.4867 50.7486 54.0497 50.6135 53.6992 50.8048C53.3488 50.996 53.2163 51.4409 53.4038 51.7995L53.7308 52.4222ZM25.0192 24.326L23.0796 26.3052C22.7984 26.5921 22.7984 27.0578 23.0796 27.3447C23.2202 27.4881 23.4046 27.5599 23.5889 27.5599C23.7733 27.5599 23.9577 27.4881 24.0983 27.3447L26.0379 25.3655C26.3191 25.0786 26.3191 24.6129 26.0379 24.326C25.7568 24.0391 25.3004 24.0391 25.0192 24.326ZM40.3948 10.4105C40.5791 10.4105 40.7635 10.3387 40.9041 10.1953L42.8438 8.21612C43.1249 7.92923 43.1249 7.46354 42.8438 7.17664C42.5626 6.88974 42.1062 6.88974 41.825 7.17664L39.8854 9.15582C39.6042 9.44271 39.6042 9.9084 39.8854 10.1953C40.026 10.3387 40.2104 10.4105 40.3948 10.4105ZM41.825 27.3436C41.9656 27.4871 42.15 27.5588 42.3344 27.5588C42.5188 27.5588 42.7032 27.4871 42.8438 27.3436C43.1249 27.0567 43.1249 26.5911 42.8438 26.3042L40.9041 24.325C40.6229 24.0381 40.1666 24.0381 39.8854 24.325C39.6042 24.6119 39.6042 25.0776 39.8854 25.3645L41.825 27.3436ZM25.0192 10.1953C25.1598 10.3387 25.3442 10.4105 25.5286 10.4105C25.713 10.4105 25.8974 10.3387 26.0379 10.1953C26.3191 9.9084 26.3191 9.44271 26.0379 9.15582L24.0983 7.17664C23.8171 6.88974 23.3608 6.88974 23.0796 7.17664C22.7984 7.46354 22.7984 7.92923 23.0796 8.21612L25.0192 10.1953ZM19.7056 17.9956H22.449C22.8463 17.9956 23.1692 17.6671 23.1692 17.2607C23.1692 16.8542 22.8473 16.5257 22.449 16.5257H19.7056C19.3083 16.5257 18.9854 16.8542 18.9854 17.2607C18.9854 17.6671 19.3073 17.9956 19.7056 17.9956ZM42.7531 17.2607C42.7531 17.6661 43.076 17.9956 43.4733 17.9956H46.2167C46.614 17.9956 46.937 17.6671 46.937 17.2607C46.937 16.8542 46.6151 16.5257 46.2167 16.5257H43.4733C43.076 16.5257 42.7531 16.8542 42.7531 17.2607ZM32.9612 7.26915C33.3585 7.26915 33.6814 6.93964 33.6814 6.53424V3.73491C33.6814 3.32952 33.3585 3 32.9612 3C32.5639 3 32.2409 3.32848 32.2409 3.73491V6.53424C32.2409 6.93964 32.5628 7.26915 32.9612 7.26915ZM59.2787 59.5302H49.4603L32.6382 26.4861C32.515 26.2428 32.2684 26.09 31.9995 26.09C31.7305 26.09 31.484 26.2428 31.3608 26.4861L14.5386 59.5302H4.72023C4.32293 59.5302 4 59.8597 4 60.2651C4 60.6705 4.32192 61 4.72023 61H59.2798C59.6771 61 60 60.6715 60 60.2651C60 59.8587 59.6781 59.5302 59.2798 59.5302H59.2787ZM31.9995 28.4185L38.4541 41.0981C38.4103 41.1397 38.3716 41.1885 38.338 41.2426L36.9698 43.4639L35.6058 41.2488C35.5854 41.2155 35.562 41.1833 35.5365 41.1532C35.5294 41.1438 35.5222 41.1355 35.5141 41.1272C35.51 41.123 35.5059 41.1189 35.5018 41.1147C35.4978 41.1105 35.4937 41.1064 35.4896 41.1022C35.4815 41.0939 35.4733 41.0866 35.4652 41.0794C35.4183 41.0378 35.3674 41.0035 35.3134 40.9754C35.3103 40.9733 35.3073 40.9723 35.3042 40.9713C35.2971 40.9681 35.29 40.964 35.2828 40.9609C35.2747 40.9577 35.2675 40.9546 35.2594 40.9515C35.2563 40.9515 35.2543 40.9494 35.2512 40.9484C35.2411 40.9442 35.2309 40.9411 35.2207 40.937H35.2197C35.1759 40.9214 35.131 40.912 35.0872 40.9058H35.0852C35.075 40.9037 35.0658 40.9026 35.0556 40.9026H35.0485C35.0404 40.9016 35.0322 40.9006 35.0241 40.9006C35.02 40.9006 35.0159 40.9006 35.0118 40.9006C35.0057 40.9006 34.9996 40.9006 34.9925 40.9006C34.9864 40.9006 34.9803 40.9006 34.9752 40.9006C34.9711 40.9006 34.966 40.9006 34.9619 40.9006C34.9538 40.9006 34.9466 40.9006 34.9385 40.9016C34.9354 40.9016 34.9334 40.9016 34.9303 40.9016C34.9212 40.9016 34.912 40.9037 34.9018 40.9047H34.8988C34.8886 40.9068 34.8774 40.9089 34.8672 40.9099C34.8336 40.9162 34.7999 40.9245 34.7673 40.9359H34.7643C34.7541 40.9401 34.7449 40.9432 34.7348 40.9473C34.7317 40.9484 34.7286 40.9505 34.7256 40.9515C34.7184 40.9546 34.7113 40.9577 34.7042 40.9609C34.696 40.965 34.6879 40.9681 34.6808 40.9723C34.6787 40.9733 34.6767 40.9744 34.6736 40.9754C34.6094 41.0076 34.5493 41.0503 34.4964 41.1022C34.4923 41.1053 34.4892 41.1095 34.4862 41.1126C34.4811 41.1168 34.477 41.122 34.4719 41.1272C34.4648 41.1345 34.4587 41.1417 34.4515 41.149C34.4515 41.15 34.4495 41.1511 34.4485 41.1532C34.423 41.1833 34.4006 41.2145 34.3802 41.2478L32.0005 45.1115L29.6208 41.2488C29.6004 41.2155 29.578 41.1833 29.5525 41.1532C29.5525 41.1532 29.5505 41.1511 29.5505 41.15C29.5434 41.1417 29.5372 41.1345 29.5301 41.1272C29.526 41.123 29.5209 41.1178 29.5169 41.1137C29.5128 41.1095 29.5097 41.1064 29.5057 41.1022C29.4975 41.0939 29.4894 41.0866 29.4802 41.0783C29.4333 41.0367 29.3824 41.0024 29.3284 40.9754L29.3223 40.9723C29.3141 40.9681 29.306 40.964 29.2978 40.9609C29.2907 40.9577 29.2836 40.9546 29.2765 40.9525C29.2734 40.9515 29.2693 40.9494 29.2663 40.9484C29.2571 40.9442 29.2479 40.9411 29.2377 40.938C29.2367 40.938 29.2357 40.938 29.2337 40.937C29.2235 40.9338 29.2123 40.9297 29.2021 40.9266C29.1909 40.9234 29.1797 40.9203 29.1685 40.9182C29.1573 40.9162 29.1471 40.9141 29.1359 40.912H29.1338C29.1236 40.9099 29.1135 40.9078 29.1033 40.9068C29.1012 40.9068 29.1002 40.9068 29.0982 40.9068C29.089 40.9068 29.0798 40.9047 29.0717 40.9037C29.0686 40.9037 29.0656 40.9037 29.0625 40.9037C29.0554 40.9037 29.0483 40.9037 29.0411 40.9026C29.036 40.9026 29.0309 40.9026 29.0269 40.9026C29.0218 40.9026 29.0157 40.9026 29.0106 40.9026C29.0034 40.9026 28.9973 40.9026 28.9902 40.9026C28.9861 40.9026 28.9831 40.9026 28.979 40.9026C28.9708 40.9026 28.9617 40.9026 28.9535 40.9037H28.9484C28.9382 40.9047 28.9281 40.9058 28.9179 40.9078C28.8618 40.9151 28.8058 40.9297 28.7528 40.9505C28.7508 40.9505 28.7488 40.9525 28.7467 40.9536C28.7386 40.9567 28.7304 40.9598 28.7223 40.964C28.7151 40.9671 28.709 40.9702 28.7019 40.9733C28.6978 40.9754 28.6948 40.9764 28.6907 40.9785C28.6367 41.0056 28.5858 41.0399 28.5389 41.0814C28.5308 41.0898 28.5226 41.097 28.5145 41.1053C28.5104 41.1095 28.5063 41.1126 28.5032 41.1168C28.4992 41.1209 28.4941 41.1251 28.49 41.1303C28.4829 41.1376 28.4757 41.1459 28.4686 41.1542C28.4686 41.1542 28.4676 41.1563 28.4666 41.1563C28.4411 41.1864 28.4177 41.2187 28.3983 41.2519L27.0332 43.467L25.6651 41.2457C25.6315 41.1916 25.5928 41.1438 25.549 41.1012L32.0036 28.4216L31.9995 28.4185ZM16.1615 59.5302L24.787 42.5866L26.4189 45.2363C26.5504 45.4504 26.7806 45.5803 27.0281 45.5803C27.2757 45.5803 27.5059 45.4504 27.6384 45.2363L29.0065 43.0149L31.3893 46.8828C31.5207 47.0969 31.7509 47.2269 31.9995 47.2269C32.2481 47.2269 32.4773 47.0969 32.6097 46.8828L34.9925 43.0149L36.3606 45.2363C36.492 45.4504 36.7223 45.5803 36.9698 45.5803C37.2174 45.5803 37.4476 45.4504 37.579 45.2363L39.211 42.5866L47.8365 59.5302H16.1615Z" fill="white"/>
<defs>
<linearGradient id="paint0_linear_2005_630" x1="0" y1="32.5" x2="65" y2="32.5" gradientUnits="userSpaceOnUse">
<stop stop-color="#145976"/>
<stop offset="0.26" stop-color="#165A76"/>
<stop offset="0.4" stop-color="#1E5D77"/>
<stop offset="0.51" stop-color="#2B637A"/>
<stop offset="0.61" stop-color="#3F6B7E"/>
<stop offset="0.7" stop-color="#587683"/>
<stop offset="0.78" stop-color="#778388"/>
<stop offset="0.85" stop-color="#9B938F"/>
<stop offset="0.92" stop-color="#C6A698"/>
<stop offset="0.99" stop-color="#F5BAA1"/>
<stop offset="1" stop-color="#FFBFA3"/>
</linearGradient>
</defs>
</svg>
