<svg width="64" height="54" viewBox="0 0 64 54" fill="none" xmlns="http://www.w3.org/2000/svg">
<path d="M12.3799 14.6962V10.115L21.4152 1H48.6508V24.9059" stroke="white" stroke-width="1.5" stroke-linecap="round" stroke-linejoin="round"/>
<path d="M48.6508 41.2438V52.81H12.3799V49.0022" stroke="white" stroke-width="1.5" stroke-linecap="round" stroke-linejoin="round"/>
<path d="M12.3799 10.115L21.4152 1" stroke="white" stroke-width="1.5" stroke-linecap="round" stroke-linejoin="round"/>
<path d="M21.4152 1V10.1269L12.3799 10.115" stroke="white" stroke-width="1.5" stroke-linecap="round" stroke-linejoin="round"/>
<path d="M44.9752 40.4466L40.9229 41.2439L41.7003 37.1505L55.9778 22.7284L59.2527 26.0245L44.9752 40.4466Z" stroke="white" stroke-width="1.5" stroke-linecap="round" stroke-linejoin="round"/>
<path d="M62.8112 22.4202L59.5459 19.1218L57.6134 21.0739L60.8787 24.3723L62.8112 22.4202Z" stroke="white" stroke-width="1.5" stroke-linecap="round" stroke-linejoin="round"/>
<path d="M57.6156 24.3824L51.7256 30.3322" stroke="white" stroke-width="1.5" stroke-linecap="round" stroke-linejoin="round"/>
<path d="M41.7002 37.1505L44.9751 40.4467" stroke="white" stroke-width="1.5" stroke-linecap="round" stroke-linejoin="round"/>
<path d="M30.5449 32.7239H42.1719" stroke="white" stroke-width="1.5" stroke-linecap="round" stroke-linejoin="round"/>
<path d="M32.6416 32.7238V31.6172" stroke="white" stroke-width="1.5" stroke-linecap="round" stroke-linejoin="round"/>
<path d="M35.3984 32.7239V27.6428" stroke="white" stroke-width="1.5" stroke-linecap="round" stroke-linejoin="round"/>
<path d="M38.167 32.7238V24.9059" stroke="white" stroke-width="1.5" stroke-linecap="round" stroke-linejoin="round"/>
<path d="M40.9229 32.7238V22.764" stroke="white" stroke-width="1.5" stroke-linecap="round" stroke-linejoin="round"/>
<path d="M28.1182 5.56934H42.1718" stroke="white" stroke-width="1.5" stroke-linecap="round" stroke-linejoin="round"/>
<path d="M28.1182 45.6704H42.1718" stroke="white" stroke-width="1.5" stroke-linecap="round" stroke-linejoin="round"/>
<path d="M28.1182 10.1268H42.1718" stroke="white" stroke-width="1.5" stroke-linecap="round" stroke-linejoin="round"/>
<path d="M18.8594 14.6963H42.1722" stroke="white" stroke-width="1.5" stroke-linecap="round" stroke-linejoin="round"/>
<path d="M12.6859 46.0988C19.1398 46.0988 24.3717 39.6152 24.3717 31.6172C24.3717 23.6192 19.1398 17.1356 12.6859 17.1356C6.23194 17.1356 1 23.6192 1 31.6172C1 39.6152 6.23194 46.0988 12.6859 46.0988Z" stroke="white" stroke-width="1.5" stroke-linecap="round" stroke-linejoin="round"/>
<path d="M12.6855 17.1356H15.6188C22.0743 17.1356 27.3047 23.6208 27.3047 31.6172C27.3047 39.6136 22.0743 46.0988 15.6188 46.0988H12.6855" stroke="white" stroke-width="1.5" stroke-linecap="round" stroke-linejoin="round"/>
<path d="M11.2256 38.9829V24.8226H13.5817C15.2427 24.8226 16.5856 26.7146 16.5856 29.0469C16.5856 31.4387 15.1838 33.3426 13.4874 33.2712L11.2139 33.176" stroke="white" stroke-width="1.5" stroke-linecap="round" stroke-linejoin="round"/>
<path d="M9.57617 36.1985H13.6403" stroke="white" stroke-width="1.5" stroke-linecap="round" stroke-linejoin="round"/>
</svg>
