<svg width="21" height="21" viewBox="0 0 21 21" fill="none" xmlns="http://www.w3.org/2000/svg">
<path fill-rule="evenodd" clip-rule="evenodd" d="M15.782 11.7757C16.5381 12.0593 17.3886 12.2483 18.2391 12.3428C19.6567 12.5318 20.6962 13.7603 20.6962 15.1779V18.013C20.6962 18.769 20.3182 19.4305 19.8457 19.9975C19.3732 20.5645 18.6171 20.8481 17.8611 20.8481H17.5776C14.5535 20.5645 11.5294 19.525 8.9778 17.824C6.61522 16.3119 4.53615 14.2328 3.0241 11.8703C1.41755 9.31867 0.28351 6.29456 0 3.27046C0 2.51444 0.189006 1.75841 0.661522 1.19139C1.13404 0.624371 1.79556 0.246359 2.55159 0.151855H2.8351H5.67019C7.08774 0.151855 8.31628 1.19139 8.50529 2.60894C8.59979 3.45947 8.7888 4.31 9.07231 5.06602C9.45032 6.10556 9.16681 7.3341 8.41078 8.09012L7.74926 8.75165C8.8833 10.5472 10.3954 11.9648 12.0964 13.0988L12.7579 12.4373C13.6085 11.6812 14.7425 11.3977 15.782 11.7757ZM18.8061 18.0132V15.1781C18.8061 14.7056 18.4281 14.3276 18.0501 14.2331C17.1051 14.0441 16.1601 13.8551 15.215 13.477C14.837 13.288 14.459 13.3825 14.1755 13.6661L12.9469 14.8946C12.6634 15.2726 12.1909 15.2726 11.8129 15.0836C9.26132 13.6661 7.18225 11.587 5.7647 9.0354C5.5757 8.65738 5.6702 8.18487 5.95371 7.90136L7.18225 6.76732C7.37126 6.48381 7.46576 6.1058 7.37126 5.72778C6.99324 4.87725 6.70973 3.83772 6.61523 2.89269C6.52073 2.42017 6.14271 2.04216 5.6702 2.04216H2.8351C2.55159 2.04216 2.26808 2.23116 2.07908 2.42017C1.98457 2.60918 1.89007 2.79818 1.89007 3.08169C2.17358 5.82229 3.11861 8.46838 4.63066 10.831C6.04821 13.0045 7.84377 14.8946 10.0173 16.2176C12.3799 17.7297 15.026 18.6747 17.7666 18.9582C18.1446 18.9582 18.3336 18.8637 18.5226 18.6747C18.7116 18.4857 18.8061 18.2967 18.8061 18.0132Z" fill="white"/>
</svg>
