<svg width="66" height="65" viewBox="0 0 66 65" fill="none" xmlns="http://www.w3.org/2000/svg">
<circle cx="32.5" cy="32.5" r="32.5" fill="url(#paint0_linear_2005_1143)"/>
<path d="M20.4176 45.5807H1.00098V7.49811H55.1547V34.2823M35.8891 4.62635V1H19.6582V4.62635M1 22.6477C1 22.6477 11.922 25.7833 20.4166 25.7833M35.7371 25.7833C44.2317 25.7833 55.1537 22.6477 55.1537 22.6477M25.5666 45.5631H29.3332M52.7558 45.5973H56.5224M41.0273 61V57.2476M41.0617 33.9128V30.1604M53.1345 42.2691C40.3572 31.3147 28.9545 42.2691 28.9545 42.2691M28.9545 48.8913C28.9545 48.8913 40.3572 59.8456 53.1345 48.8913M39.1396 44.3579C38.912 44.7098 38.7796 45.1291 38.7796 45.5797C38.7796 46.8259 39.794 47.8366 41.045 47.8366C42.2959 47.8366 43.3104 46.8259 43.3104 45.5797C43.3104 44.3334 42.2959 43.3228 41.045 43.3228M31.9832 22.6477H24.1714V30.4301H31.9832V22.6477ZM41.045 39.2546C37.5384 39.2546 34.6961 42.0863 34.6961 45.5797C34.6961 49.0731 37.5384 51.9048 41.045 51.9048C44.5516 51.9048 47.3939 49.0731 47.3939 45.5797C47.3939 42.0863 44.5516 39.2546 41.045 39.2546Z" stroke="white" stroke-width="1.5" stroke-linecap="round" stroke-linejoin="round"/>
<defs>
<linearGradient id="paint0_linear_2005_1143" x1="0" y1="32.5" x2="65" y2="32.5" gradientUnits="userSpaceOnUse">
<stop stop-color="#145976"/>
<stop offset="0.26" stop-color="#165A76"/>
<stop offset="0.4" stop-color="#1E5D77"/>
<stop offset="0.51" stop-color="#2B637A"/>
<stop offset="0.61" stop-color="#3F6B7E"/>
<stop offset="0.7" stop-color="#587683"/>
<stop offset="0.78" stop-color="#778388"/>
<stop offset="0.85" stop-color="#9B938F"/>
<stop offset="0.92" stop-color="#C6A698"/>
<stop offset="0.99" stop-color="#F5BAA1"/>
<stop offset="1" stop-color="#FFBFA3"/>
</linearGradient>
</defs>
</svg>
