<svg width="66" height="65" viewBox="0 0 66 65" fill="none" xmlns="http://www.w3.org/2000/svg">
<circle cx="32.5" cy="32.5" r="32.5" fill="url(#paint0_linear_2005_1143)"/>
<path d="M1.39258 32.3623C1.39258 30.505 6.16451 28.9995 12.0452 28.9995C17.9259 28.9995 22.6978 30.505 22.6978 32.3623" stroke="white" stroke-width="1.5" stroke-linecap="round" stroke-linejoin="round"/>
<path d="M22.6978 37.329C22.6978 39.1862 17.9259 40.6917 12.0452 40.6917C6.16451 40.6917 1.39258 39.2003 1.39258 37.329" stroke="white" stroke-width="1.5" stroke-linecap="round" stroke-linejoin="round"/>
<path d="M22.6978 42.3098C22.6978 44.1671 17.9259 45.6726 12.0452 45.6726C6.16451 45.6726 1.39258 44.1671 1.39258 42.3098" stroke="white" stroke-width="1.5" stroke-linecap="round" stroke-linejoin="round"/>
<path d="M22.6978 47.2766C22.6978 49.1339 17.9259 50.6394 12.0452 50.6394C6.16451 50.6394 1.39258 49.1339 1.39258 47.2766" stroke="white" stroke-width="1.5" stroke-linecap="round" stroke-linejoin="round"/>
<path d="M1.39258 52.2433C1.39258 54.1006 6.16451 55.6061 12.0452 55.6061C17.9259 55.6061 22.6978 54.1006 22.6978 52.2433V32.3623C22.6978 34.2196 17.9259 35.7251 12.0452 35.7251C6.16451 35.7251 1.39258 34.2196 1.39258 32.3623V52.2433Z" stroke="white" stroke-width="1.5" stroke-linecap="round" stroke-linejoin="round"/>
<path d="M26.5723 55.4091V43.942H33.5056V55.4091" stroke="white" stroke-width="1.5" stroke-linecap="round" stroke-linejoin="round"/>
<path d="M38.0674 55.4092V38.3984H45.0148V55.4092" stroke="white" stroke-width="1.5" stroke-linecap="round" stroke-linejoin="round"/>
<path d="M49.5762 55.4091V28.282H56.5235V55.4091" stroke="white" stroke-width="1.5" stroke-linecap="round" stroke-linejoin="round"/>
<path d="M7.86326 26.4387C7.79308 25.7071 7.75098 24.9614 7.75098 24.2016C7.75098 11.7777 17.8001 1.70349 30.179 1.70349C42.558 1.70349 52.6212 11.7777 52.6212 24.2016" stroke="white" stroke-width="1.5" stroke-linecap="round" stroke-linejoin="round"/>
<path d="M17.1262 26.9171C16.4666 25.4679 16.1157 23.8077 16.621 22.2177C17.6736 18.9253 10.3613 13.649 10.3613 13.649" stroke="white" stroke-width="1.5" stroke-linecap="round" stroke-linejoin="round"/>
<path d="M24.4809 2.43518C24.4809 2.43518 28.2283 7.89438 27.0213 10.6099C25.8142 13.3254 23.3721 12.8189 22.502 13.3254C21.6318 13.832 16.2844 14.3244 17.9265 15.9706C19.5686 17.6168 22.4318 17.7716 24.3125 19.657C26.1932 21.5424 25.3932 24.1875 27.2599 24.1875C29.1265 24.1875 30.4458 20.5856 32.2423 22.3866C34.0388 24.1875 31.2458 28.7181 28.9862 30.9834C26.7265 33.2487 28.7335 34.6416 27.709 35.6687C27.1055 36.2738 26.3476 36.8506 25.8283 37.6245" stroke="white" stroke-width="1.5" stroke-linecap="round" stroke-linejoin="round"/>
<path d="M51.9335 18.6298C51.9335 18.6298 45.9546 18.8128 44.0458 17.7012C42.137 16.6037 38.0248 18.9112 38.7686 23.1323C39.5265 27.3533 42.7686 24.9755 45.309 27.5081C47.8353 30.0407 43.9897 32.8266 45.309 34.1492" stroke="white" stroke-width="1.5" stroke-linecap="round" stroke-linejoin="round"/>
<path d="M39.3015 3.64514C39.3015 3.64514 34.2489 8.04908 35.3015 10.3144C36.3541 12.5797 37.6734 11.8199 39.3015 10.8772C40.9296 9.93447 41.1682 8.87922 42.9927 9.93447C44.8173 10.9897 48.0313 10.5536 48.0313 10.5536" stroke="white" stroke-width="1.5" stroke-linecap="round" stroke-linejoin="round"/>
<defs>
<linearGradient id="paint0_linear_2005_1143" x1="0" y1="32.5" x2="65" y2="32.5" gradientUnits="userSpaceOnUse">
<stop stop-color="#145976"/>
<stop offset="0.26" stop-color="#165A76"/>
<stop offset="0.4" stop-color="#1E5D77"/>
<stop offset="0.51" stop-color="#2B637A"/>
<stop offset="0.61" stop-color="#3F6B7E"/>
<stop offset="0.7" stop-color="#587683"/>
<stop offset="0.78" stop-color="#778388"/>
<stop offset="0.85" stop-color="#9B938F"/>
<stop offset="0.92" stop-color="#C6A698"/>
<stop offset="0.99" stop-color="#F5BAA1"/>
<stop offset="1" stop-color="#FFBFA3"/>
</linearGradient>
</defs>
</svg>
