<svg width="65" height="65" viewBox="0 0 65 65" fill="none" xmlns="http://www.w3.org/2000/svg">
<circle cx="32.5" cy="32.5" r="32.5" fill="url(#paint0_linear_2005_713)"/>
<path d="M60.8627 39.428H4" stroke="white" stroke-width="1.5" stroke-linecap="round" stroke-linejoin="round"/>
<path d="M4 45.8245H13.3653L7.29235 60.4259H57.5704L51.4974 45.8245H60.8627" stroke="white" stroke-width="1.5" stroke-linecap="round" stroke-linejoin="round"/>
<path d="M24.6815 45.1181C24.6815 44.8597 24.4768 44.653 24.2209 44.653H23.5443L22.1682 43.1831C21.8896 42.8845 21.5029 42.718 21.0935 42.718H18.0001C17.5964 42.718 17.2041 42.8845 16.9254 43.1831L15.5494 44.653H14.8727C14.6168 44.653 14.4121 44.8597 14.4121 45.1181C14.4121 45.3765 14.6168 45.5832 14.8727 45.5832H15.049L14.7647 46.3698V48.7125H16.8913V47.9603H22.1909V48.7125H24.3176V46.3698L24.0333 45.5832H24.2096C24.4654 45.5832 24.6701 45.3765 24.6701 45.1181H24.6815Z" stroke="white" stroke-width="1.5" stroke-linecap="round" stroke-linejoin="round"/>
<path d="M22.0889 44.3832L21.2814 43.4301H17.8185L17.011 44.3832C16.8518 44.5727 16.9826 44.8655 17.2328 44.8655H21.8671C22.1116 44.8655 22.2481 44.5727 22.0889 44.3832Z" stroke="white" stroke-width="1.5" stroke-linecap="round" stroke-linejoin="round"/>
<path d="M50.2982 48.9135C50.2982 48.4427 49.9173 48.058 49.451 48.058H48.2114L45.6867 45.3593C45.1749 44.8138 44.4584 44.5038 43.7135 44.5038H38.0329C37.288 44.5038 36.5716 44.8138 36.0598 45.3593L33.5351 48.058H32.2955C31.8292 48.058 31.4482 48.4427 31.4482 48.9135C31.4482 49.3843 31.8292 49.769 32.2955 49.769H32.6196L32.0965 51.216V55.5166H35.9973V54.1328H45.7265V55.5166H49.6273V51.216L49.1041 49.769H49.4282C49.8945 49.769 50.2755 49.3843 50.2755 48.9135H50.2982Z" stroke="white" stroke-width="1.5" stroke-linecap="round" stroke-linejoin="round"/>
<path d="M45.539 47.5699L44.0606 45.8186H37.7033L36.2249 47.5699C35.9292 47.9144 36.1737 48.4541 36.6286 48.4541H45.141C45.5959 48.4541 45.8404 47.9201 45.5447 47.5699H45.539Z" stroke="white" stroke-width="1.5" stroke-linecap="round" stroke-linejoin="round"/>
<path d="M4.83008 34.9493H58.0877" stroke="white" stroke-width="1.5" stroke-linecap="round" stroke-linejoin="round"/>
<path d="M34.5449 35V5.57422H44.985V35" stroke="white" stroke-width="1.5" stroke-linecap="round" stroke-linejoin="round"/>
<path d="M34.5449 14.8241H37.0932" stroke="white" stroke-width="1.5" stroke-linecap="round" stroke-linejoin="round"/>
<path d="M34.5449 17.4974H37.0932" stroke="white" stroke-width="1.5" stroke-linecap="round" stroke-linejoin="round"/>
<path d="M34.5449 20.1709H37.0932" stroke="white" stroke-width="1.5" stroke-linecap="round" stroke-linejoin="round"/>
<path d="M34.5449 22.8505H37.0932" stroke="white" stroke-width="1.5" stroke-linecap="round" stroke-linejoin="round"/>
<path d="M34.5449 25.5238H37.0932" stroke="white" stroke-width="1.5" stroke-linecap="round" stroke-linejoin="round"/>
<path d="M34.5449 28.1973H37.0932" stroke="white" stroke-width="1.5" stroke-linecap="round" stroke-linejoin="round"/>
<path d="M34.5449 30.8706H37.0932" stroke="white" stroke-width="1.5" stroke-linecap="round" stroke-linejoin="round"/>
<path d="M40.1514 9.47119H42.6997" stroke="white" stroke-width="1.5" stroke-linecap="round" stroke-linejoin="round"/>
<path d="M40.1514 12.1508H42.6997" stroke="white" stroke-width="1.5" stroke-linecap="round" stroke-linejoin="round"/>
<path d="M40.1514 14.8241H42.6997" stroke="white" stroke-width="1.5" stroke-linecap="round" stroke-linejoin="round"/>
<path d="M40.1514 17.4976H42.6997" stroke="white" stroke-width="1.5" stroke-linecap="round" stroke-linejoin="round"/>
<path d="M40.1514 20.171H42.6997" stroke="white" stroke-width="1.5" stroke-linecap="round" stroke-linejoin="round"/>
<path d="M40.1514 22.8505H42.6997" stroke="white" stroke-width="1.5" stroke-linecap="round" stroke-linejoin="round"/>
<path d="M40.1514 25.5238H42.6997" stroke="white" stroke-width="1.5" stroke-linecap="round" stroke-linejoin="round"/>
<path d="M10.3516 35V16.072H18.8884V35" stroke="white" stroke-width="1.5" stroke-linecap="round" stroke-linejoin="round"/>
<path d="M10.3516 18.5007H12.43" stroke="white" stroke-width="1.5" stroke-linecap="round" stroke-linejoin="round"/>
<path d="M10.3516 20.6847H12.43" stroke="white" stroke-width="1.5" stroke-linecap="round" stroke-linejoin="round"/>
<path d="M10.3516 22.8748H12.43" stroke="white" stroke-width="1.5" stroke-linecap="round" stroke-linejoin="round"/>
<path d="M10.3516 25.0588H12.43" stroke="white" stroke-width="1.5" stroke-linecap="round" stroke-linejoin="round"/>
<path d="M10.3516 27.2489H12.43" stroke="white" stroke-width="1.5" stroke-linecap="round" stroke-linejoin="round"/>
<path d="M10.3516 29.4391H12.43" stroke="white" stroke-width="1.5" stroke-linecap="round" stroke-linejoin="round"/>
<path d="M10.3516 31.623H12.43" stroke="white" stroke-width="1.5" stroke-linecap="round" stroke-linejoin="round"/>
<path d="M10.3516 33.8132H12.43" stroke="white" stroke-width="1.5" stroke-linecap="round" stroke-linejoin="round"/>
<path d="M21.6836 35V12.9766L31.6857 12.9949V34.8287" stroke="white" stroke-width="1.5" stroke-linecap="round" stroke-linejoin="round"/>
<path d="M26.3896 16.8123H31.6853" stroke="white" stroke-width="1.5" stroke-linecap="round" stroke-linejoin="round"/>
<path d="M26.3896 19.4979H31.6853" stroke="white" stroke-width="1.5" stroke-linecap="round" stroke-linejoin="round"/>
<path d="M26.3896 22.1897H31.6853" stroke="white" stroke-width="1.5" stroke-linecap="round" stroke-linejoin="round"/>
<path d="M26.3896 24.8754H31.6853" stroke="white" stroke-width="1.5" stroke-linecap="round" stroke-linejoin="round"/>
<path d="M26.3896 27.5609H31.6853" stroke="white" stroke-width="1.5" stroke-linecap="round" stroke-linejoin="round"/>
<path d="M26.3896 30.2466H31.6853" stroke="white" stroke-width="1.5" stroke-linecap="round" stroke-linejoin="round"/>
<path d="M49.0078 35.0001V14.3408L55.9997 19.498V35.0001" stroke="white" stroke-width="1.5" stroke-linecap="round" stroke-linejoin="round"/>
<path d="M51.3018 19.498V35.0001" stroke="white" stroke-width="1.5" stroke-linecap="round" stroke-linejoin="round"/>
<defs>
<linearGradient id="paint0_linear_2005_713" x1="0" y1="32.5" x2="65" y2="32.5" gradientUnits="userSpaceOnUse">
<stop stop-color="#145976"/>
<stop offset="0.26" stop-color="#165A76"/>
<stop offset="0.4" stop-color="#1E5D77"/>
<stop offset="0.51" stop-color="#2B637A"/>
<stop offset="0.61" stop-color="#3F6B7E"/>
<stop offset="0.7" stop-color="#587683"/>
<stop offset="0.78" stop-color="#778388"/>
<stop offset="0.85" stop-color="#9B938F"/>
<stop offset="0.92" stop-color="#C6A698"/>
<stop offset="0.99" stop-color="#F5BAA1"/>
<stop offset="1" stop-color="#FFBFA3"/>
</linearGradient>
</defs>
</svg>
