<svg width="19" height="19" viewBox="0 0 19 19" fill="none" xmlns="http://www.w3.org/2000/svg">
<path d="M0 19L1.36806 13.9158C0.590278 12.5235 0.1875 10.965 0.1875 9.38571C0.1875 4.21145 4.40278 0 9.59028 0C14.7778 0 19 4.21145 19 9.38571C19 14.56 14.7778 18.7714 9.59028 18.7714C8.03472 18.7714 6.49306 18.3766 5.11806 17.6354L0 19.0069L0 19ZM5.375 15.7306L5.69444 15.9245C6.875 16.6311 8.22222 16.9982 9.59028 16.9982C13.7986 16.9982 17.2222 13.5833 17.2222 9.38571C17.2222 5.18812 13.7986 1.77324 9.59028 1.77324C5.38194 1.77324 1.96528 5.18812 1.96528 9.38571C1.96528 10.7711 2.35417 12.1356 3.08333 13.3339L3.27778 13.6595L2.51389 16.4995L5.375 15.7375V15.7306ZM13.0903 10.6949C12.7014 10.4663 12.2014 10.2031 11.7431 10.3901C11.3958 10.5355 11.1667 11.0828 10.9444 11.3598C10.8264 11.5053 10.6875 11.5261 10.5139 11.4568C9.20139 10.9373 8.19444 10.0576 7.47222 8.85235C7.34722 8.66533 7.36806 8.51987 7.52083 8.3467C7.74306 8.09041 8.01389 7.79949 8.07639 7.45315C8.13889 7.10682 7.97222 6.69814 7.82639 6.39336C7.64583 5.99854 7.4375 5.43748 7.04167 5.21582C6.68056 5.00802 6.20139 5.12577 5.875 5.38899C5.3125 5.84615 5.04167 6.55961 5.05556 7.2592C5.05556 7.46008 5.08333 7.66096 5.13194 7.8549C5.24306 8.31899 5.45833 8.75538 5.70139 9.17098C5.88194 9.48268 6.08333 9.78746 6.29861 10.0784C7 11.0273 7.875 11.8585 8.88889 12.475C9.39583 12.7867 9.9375 13.0569 10.5 13.2439C11.1319 13.4517 11.6944 13.6664 12.3819 13.5417C13.0972 13.4032 13.8056 12.9668 14.0833 12.2742C14.1667 12.0733 14.2083 11.8447 14.1597 11.63C14.0625 11.1867 13.4583 10.9234 13.0972 10.7087L13.0903 10.6949Z" fill="#145976"/>
</svg>
