<svg width="19" height="18" viewBox="0 0 19 18" fill="none" xmlns="http://www.w3.org/2000/svg">
<path d="M9.51593 14.5502C8.87098 13.9964 8.30237 13.4022 7.75997 12.7858C6.81931 11.7166 5.98973 10.5755 5.35289 9.31289C4.98128 8.57612 4.69089 7.81243 4.53355 7.00671C4.30392 5.83078 4.40093 4.69176 4.99449 3.61945C5.58763 2.54795 6.47499 1.7814 7.65422 1.33346C8.37102 1.06115 9.11809 0.955898 9.88754 1.01668C11.1122 1.11317 12.171 1.56865 13.0477 2.39129C13.8474 3.14193 14.341 4.05209 14.5166 5.11318C14.6107 5.68146 14.587 6.25036 14.4898 6.81742C14.2936 7.96255 13.8212 9.00835 13.2319 10.0109C12.527 11.2097 11.6742 12.3067 10.712 13.3264C10.3218 13.7398 9.91718 14.1404 9.51593 14.5502ZM9.50505 13.4624C9.52872 13.4435 9.53746 13.4375 9.54471 13.4302C10.5653 12.4248 11.4663 11.3288 12.2435 10.141C12.7724 9.33247 13.2212 8.48637 13.5095 7.56888C13.7551 6.78703 13.8885 5.99437 13.7342 5.17845C13.5154 4.0223 12.9001 3.09543 11.8759 2.46065C10.4602 1.58313 8.96714 1.51786 7.47215 2.27339C6.35495 2.83821 5.65841 3.74265 5.35438 4.91553C5.16506 5.64618 5.21772 6.37846 5.3885 7.10544C5.61087 8.05169 6.01894 8.92737 6.52616 9.76144C7.20905 10.8843 8.02328 11.9163 8.93345 12.8795C9.11873 13.0755 9.31125 13.2652 9.50505 13.4624ZM6.07544 16.0415C5.30108 15.943 4.53568 15.8057 3.78306 15.6054C3.25218 15.4641 2.7309 15.2974 2.25716 15.0198C2.0996 14.9276 1.94545 14.8287 1.84887 14.6698C1.76082 14.5251 1.76124 14.4119 1.87531 14.2859C1.96038 14.1916 2.05525 14.1011 2.161 14.0293C2.60383 13.728 3.11062 13.5579 3.62316 13.4069C4.33953 13.196 5.0753 13.0661 5.81533 12.9576C6.00636 12.9296 6.15625 12.7807 6.16691 12.6143C6.18524 12.3334 5.95626 12.1566 5.63731 12.2055C5.51834 12.2237 5.39958 12.2437 5.2804 12.2616C4.48408 12.3817 3.69864 12.5459 2.94091 12.8144C2.39659 13.0071 1.86337 13.2234 1.43206 13.6115C1.10436 13.9065 0.928679 14.259 1.02739 14.6983C1.10415 15.0396 1.33974 15.2782 1.61648 15.4851C2.08553 15.8357 2.62877 16.0444 3.18716 16.2186C4.11737 16.5088 5.07445 16.6792 6.04389 16.7964C6.93594 16.9046 7.8314 16.9706 8.72963 16.991C9.62807 17.0114 10.5265 16.9982 11.4241 16.939C12.3597 16.8772 13.289 16.7744 14.2098 16.6057C14.9529 16.4697 15.685 16.2941 16.3858 16.0158C16.864 15.8259 17.3205 15.6009 17.6746 15.2248C17.9313 14.9521 18.0569 14.64 17.9753 14.2702C17.9023 13.9399 17.687 13.6996 17.422 13.4955C17.0297 13.1932 16.5741 13.0033 16.1074 12.8366C15.4174 12.5902 14.7036 12.4297 13.9798 12.3081C13.7216 12.2647 13.4621 12.222 13.2012 12.2018C12.9777 12.1847 12.8053 12.3389 12.7916 12.5329C12.7758 12.7567 12.9136 12.918 13.1408 12.9586C13.6982 13.0579 14.2574 13.1495 14.81 13.2684C15.3782 13.3908 15.9334 13.5603 16.4553 13.8135C16.7086 13.9365 16.9559 14.0721 17.1329 14.2959C17.2246 14.4117 17.2437 14.5374 17.1529 14.6537C17.0736 14.7552 16.9817 14.8546 16.8755 14.9292C16.4813 15.2062 16.027 15.3655 15.5663 15.5059C14.4216 15.8549 13.2419 16.0364 12.0494 16.1337C11.2009 16.2029 10.3483 16.2271 9.88989 16.251C8.35204 16.2373 7.21097 16.1861 6.07544 16.0415ZM9.50633 8.02375C8.17807 8.0266 7.10352 6.99366 7.10181 5.71267C7.1001 4.45209 8.18297 3.41057 9.49589 3.40996C10.838 3.40935 11.9205 4.43353 11.923 5.71288C11.9256 7.00549 10.8237 8.03272 9.50633 8.02375ZM7.90495 5.72042C7.91327 6.5859 8.61962 7.26944 9.51635 7.25801C10.4165 7.24659 11.119 6.59468 11.1226 5.71165C11.1263 4.85841 10.3843 4.17162 9.50058 4.17916C8.60746 4.18691 7.89685 4.87351 7.90495 5.72042Z" fill="#145976" stroke="#145976" stroke-width="0.7"/>
</svg>
