<svg width="15" height="15" viewBox="0 0 15 15" fill="none" xmlns="http://www.w3.org/2000/svg">
<path fill-rule="evenodd" clip-rule="evenodd" d="M11.4384 8.42466C11.9863 8.63014 12.6027 8.76712 13.2192 8.83562C14.2466 8.9726 15 9.86301 15 10.8904V12.9452C15 13.4932 14.726 13.9726 14.3836 14.3836C14.0411 14.7945 13.4932 15 12.9452 15H12.7397C10.5479 14.7945 8.35616 14.0411 6.50685 12.8082C4.79452 11.7123 3.28767 10.2055 2.19178 8.49315C1.0274 6.64384 0.205479 4.45205 0 2.26027C0 1.71233 0.136986 1.16438 0.479452 0.753425C0.821918 0.342466 1.30137 0.0684932 1.84932 0H2.05479H4.10959C5.13699 0 6.0274 0.753425 6.16438 1.78082C6.23288 2.39726 6.36986 3.0137 6.57534 3.56164C6.84932 4.31507 6.64384 5.20548 6.09589 5.75342L5.61644 6.23288C6.43836 7.53425 7.53425 8.56164 8.76712 9.38356L9.24658 8.90411C9.86301 8.35616 10.6849 8.15068 11.4384 8.42466ZM13.6301 12.9454V10.8906C13.6301 10.5481 13.3562 10.2741 13.0822 10.2057C12.3973 10.0687 11.7123 9.93168 11.0274 9.65771C10.7534 9.52072 10.4794 9.58921 10.274 9.79469L9.38356 10.6851C9.17808 10.9591 8.83561 10.9591 8.56164 10.8221C6.71232 9.79469 5.20547 8.28784 4.17808 6.43853C4.04109 6.16456 4.10958 5.82209 4.31506 5.61661L5.20547 4.79469C5.34246 4.58921 5.41095 4.31524 5.34246 4.04127C5.06849 3.42483 4.86301 2.67141 4.79452 1.98647C4.72602 1.64401 4.45205 1.37004 4.10958 1.37004H2.05479C1.84931 1.37004 1.64383 1.50702 1.50684 1.64401C1.43835 1.78099 1.36986 1.91798 1.36986 2.12346C1.57534 4.10976 2.26027 6.02757 3.35616 7.7399C4.38356 9.31524 5.68493 10.6851 7.26027 11.644C8.9726 12.7399 10.8904 13.4248 12.8767 13.6303C13.1507 13.6303 13.2877 13.5618 13.4247 13.4248C13.5616 13.2878 13.6301 13.1509 13.6301 12.9454Z" fill="#145976"/>
</svg>
