<svg width="65" height="65" viewBox="0 0 65 65" fill="none" xmlns="http://www.w3.org/2000/svg">
<circle cx="32.5" cy="32.5" r="32.5" fill="url(#paint0_linear_2005_508)"/>
<path d="M34.1494 30.6547C51.4281 28.1792 45.2272 9 45.2272 9C38.2579 9.88786 34.214 12.4649 32.0038 14.5679M30.9386 30.9105C30.9386 30.9105 29.2838 25.6887 24.2622 19.1878M18.5217 36.437L22.5808 54.6419C22.7558 55.4357 23.471 56 24.2927 56H39.7073C40.529 56 41.2404 55.4357 41.4192 54.6419L45.4783 36.437C46.319 36.437 47 35.7636 47 34.9322C47 34.1008 46.319 33.4274 45.4783 33.4274H18.5217C17.681 33.4274 17 34.1008 17 34.9322C17 35.7636 17.681 36.437 18.5217 36.437ZM18.5217 36.437H25.6508M30.9424 47.2531H33.7081C36.2113 47.2531 38.2427 45.2441 38.2427 42.7687C38.2427 40.2932 36.2113 38.2842 33.7081 38.2842H30.775V52.4373M28.1159 49.6985H33.9097M18.7233 11.6636C41.4497 15.3993 30.9386 30.9143 30.9386 30.9143C12.4083 29.7856 18.7233 11.6636 18.7233 11.6636Z" stroke="white" stroke-width="1.5" stroke-linecap="round" stroke-linejoin="round"/>
<defs>
<linearGradient id="paint0_linear_2005_508" x1="0" y1="32.5" x2="65" y2="32.5" gradientUnits="userSpaceOnUse">
<stop stop-color="#145976"/>
<stop offset="0.26" stop-color="#165A76"/>
<stop offset="0.4" stop-color="#1E5D77"/>
<stop offset="0.51" stop-color="#2B637A"/>
<stop offset="0.61" stop-color="#3F6B7E"/>
<stop offset="0.7" stop-color="#587683"/>
<stop offset="0.78" stop-color="#778388"/>
<stop offset="0.85" stop-color="#9B938F"/>
<stop offset="0.92" stop-color="#C6A698"/>
<stop offset="0.99" stop-color="#F5BAA1"/>
<stop offset="1" stop-color="#FFBFA3"/>
</linearGradient>
</defs>
</svg>
