<svg width="65" height="65" viewBox="0 0 65 65" fill="none" xmlns="http://www.w3.org/2000/svg">
<circle cx="32.5" cy="32.5" r="32.5" fill="url(#paint0_linear_2005_766)"/>
<path d="M39.0522 40.4674V51.9944M24.742 40.4674V51.9944M44.6322 52V35.4402C44.6322 33.0875 42.6997 31.1748 40.31 31.1748H23.6615C21.2774 31.1748 19.3393 33.0818 19.3393 35.4402V52M31.9914 31.1748V38.7691M55.6778 36.4953V45.4043M60 45.4043V32.6079C60 30.7911 58.5078 29.3128 56.6612 29.3128H45.7699M50.2293 29.3128V35.1807M8.16784 36.4897V45.3987M18.7046 29.3128H7.33885C5.49791 29.3128 4 30.7855 4 32.6079V45.4043M13.7707 29.3128V35.1807M31.9914 14C28.321 14 25.348 16.9339 25.348 20.5562C25.348 24.1785 28.321 27.1124 31.9914 27.1124C35.6619 27.1124 38.6348 24.1785 38.6348 20.5562C38.6348 16.9339 35.6619 14 31.9914 14ZM50.2293 16.0425C47.3936 16.0425 45.0953 18.3106 45.0953 21.1091C45.0953 23.9076 47.3936 26.1758 50.2293 26.1758C53.065 26.1758 55.3633 23.9076 55.3633 21.1091C55.3633 18.3106 53.065 16.0425 50.2293 16.0425ZM13.7707 16.0425C10.935 16.0425 8.63665 18.3106 8.63665 21.1091C8.63665 23.9076 10.935 26.1758 13.7707 26.1758C16.6064 26.1758 18.9047 23.9076 18.9047 21.1091C18.9047 18.3106 16.6064 16.0425 13.7707 16.0425Z" stroke="white" stroke-width="1.5" stroke-linecap="round" stroke-linejoin="round"/>
<defs>
<linearGradient id="paint0_linear_2005_766" x1="0" y1="32.5" x2="65" y2="32.5" gradientUnits="userSpaceOnUse">
<stop stop-color="#145976"/>
<stop offset="0.26" stop-color="#165A76"/>
<stop offset="0.4" stop-color="#1E5D77"/>
<stop offset="0.51" stop-color="#2B637A"/>
<stop offset="0.61" stop-color="#3F6B7E"/>
<stop offset="0.7" stop-color="#587683"/>
<stop offset="0.78" stop-color="#778388"/>
<stop offset="0.85" stop-color="#9B938F"/>
<stop offset="0.92" stop-color="#C6A698"/>
<stop offset="0.99" stop-color="#F5BAA1"/>
<stop offset="1" stop-color="#FFBFA3"/>
</linearGradient>
</defs>
</svg>
