<svg width="65" height="66" viewBox="0 0 65 66" fill="none" xmlns="http://www.w3.org/2000/svg">
<circle cx="32.5" cy="32.5" r="32.5" fill="url(#paint0_linear_2005_639)"/>
<path d="M11.8174 16.2155C12.6497 15.1669 13.1657 13.8188 13.1657 12.3708L13.1823 12.3875C13.1823 9.00882 10.4359 6.26264 7.05698 6.26264C3.67806 6.26264 0.931641 9.02547 0.931641 12.3875C0.931641 15.7495 3.67806 18.4956 7.05698 18.4956C8.98779 18.4956 10.7022 17.5969 11.8174 16.2155ZM11.8174 16.2155L22.9363 25.203M22.9363 25.203C24.6507 23.0726 27.2972 21.7079 30.2434 21.7079H30.26C30.826 21.7079 31.3919 21.7578 31.9412 21.8576C34.0051 22.2238 35.8361 23.2723 37.1843 24.7536C38.7157 26.418 39.6478 28.6482 39.6478 31.0948C39.6311 32.6593 39.2483 34.1572 38.5658 35.4554C37.4506 37.5525 35.5864 39.1836 33.3227 39.9658C32.3573 40.2987 31.3253 40.4818 30.2434 40.4818C29.0449 40.4818 27.8964 40.2654 26.8312 39.8493C24.6507 39.0005 22.8697 37.3528 21.8377 35.289C21.2052 34.0241 20.8556 32.6094 20.8556 31.0948C20.8556 28.8646 21.6379 26.8174 22.9363 25.203ZM47.887 14.9173L37.1677 24.7536M51.1827 42.1128C51.965 40.6149 53.5463 39.5997 55.3439 39.5997C57.9406 39.5997 60.0378 41.6968 60.0378 44.2931C60.0378 46.8895 57.9406 48.9866 55.3439 48.9866C52.7473 48.9866 50.6501 46.8895 50.6501 44.2931C50.6501 43.5109 50.8332 42.7619 51.1827 42.1128ZM51.1827 42.1128L38.5492 35.4721M19.0913 59.5886C20.1233 59.988 20.8556 61.0033 20.8556 62.1683C20.8556 63.6995 19.6239 64.9312 18.0926 64.9312C16.5612 64.9312 15.3295 63.6995 15.3295 62.1683C15.3295 60.6371 16.5612 59.4055 18.0926 59.4055C18.4421 59.4055 18.775 59.4721 19.0913 59.5886ZM19.0913 59.5886L26.7979 39.866M13.6983 39.3667C14.0645 40.0823 14.2642 40.8979 14.2642 41.7467C14.2642 44.6926 11.884 47.0726 8.93786 47.0726C5.9917 47.0726 3.61148 44.6926 3.61148 41.7467C3.61148 38.8008 6.00835 36.4207 8.93786 36.4207C11.0185 36.4207 12.8328 37.6191 13.6983 39.3667ZM13.6983 39.3667L21.8044 35.3056M33.9885 10.4235L31.9079 21.8576M36.402 48.8868C36.6683 48.8036 36.9513 48.7536 37.2509 48.7536H37.2343C38.6491 48.7536 39.7976 49.902 39.7976 51.3167C39.7976 52.7314 38.6491 53.8798 37.2343 53.8798C35.8194 53.8798 34.6709 52.7314 34.6709 51.3167C34.6709 50.185 35.4033 49.2363 36.402 48.8868ZM36.402 48.8868L33.3227 39.9825M50.6667 8.60938C48.5861 8.60938 46.905 10.2904 46.905 12.3708C46.905 13.3528 47.2878 14.2515 47.9037 14.9173C48.5861 15.6662 49.5848 16.1323 50.6834 16.1323C52.764 16.1323 54.4451 14.4513 54.4451 12.3708C54.4451 10.2904 52.764 8.60938 50.6834 8.60938H50.6667ZM34.4878 4.93115C32.9565 4.93115 31.7248 6.16278 31.7248 7.69398C31.7248 9.05875 32.7068 10.1739 33.9885 10.4069C34.1549 10.4402 34.3214 10.4568 34.4878 10.4568C36.0192 10.4568 37.2509 9.22519 37.2509 7.69398C37.2509 6.16278 36.0192 4.93115 34.4878 4.93115Z" stroke="white" stroke-width="1.5" stroke-linecap="round" stroke-linejoin="round"/>
<defs>
<linearGradient id="paint0_linear_2005_639" x1="0" y1="32.5" x2="65" y2="32.5" gradientUnits="userSpaceOnUse">
<stop stop-color="#145976"/>
<stop offset="0.26" stop-color="#165A76"/>
<stop offset="0.4" stop-color="#1E5D77"/>
<stop offset="0.51" stop-color="#2B637A"/>
<stop offset="0.61" stop-color="#3F6B7E"/>
<stop offset="0.7" stop-color="#587683"/>
<stop offset="0.78" stop-color="#778388"/>
<stop offset="0.85" stop-color="#9B938F"/>
<stop offset="0.92" stop-color="#C6A698"/>
<stop offset="0.99" stop-color="#F5BAA1"/>
<stop offset="1" stop-color="#FFBFA3"/>
</linearGradient>
</defs>
</svg>
