<svg width="45" height="67" viewBox="0 0 45 67" fill="none" xmlns="http://www.w3.org/2000/svg">
<path d="M25.7687 4.8176V4.60821C25.7687 2.70868 24.2294 1.1731 22.3253 1.1731C20.4211 1.1731 18.8818 2.71366 18.8818 4.60821V4.8176" stroke="white" stroke-width="1.5" stroke-linecap="round" stroke-linejoin="round"/>
<path d="M15.0237 5.77487V13.014C15.0237 13.6971 15.5784 14.2555 16.2681 14.2555H16.7679C17.3926 14.2555 17.9174 13.7918 17.9973 13.1786L18.0173 13.024C18.3022 10.8652 20.1464 9.24987 22.3304 9.24987C24.5144 9.24987 26.3585 10.8652 26.6434 13.024L26.6634 13.1786C26.7434 13.7968 27.2731 14.2555 27.8928 14.2555C28.5775 14.2555 29.1373 13.702 29.1373 13.014V5.77487C29.1373 5.24639 28.7075 4.81763 28.1777 4.81763H15.9832C15.4535 4.81763 15.0237 5.24639 15.0237 5.77487Z" stroke="white" stroke-width="1.5" stroke-linecap="round" stroke-linejoin="round"/>
<path d="M12.3848 7.71436H2.14448C1.51477 7.71436 1 8.22289 1 8.85607V64.6853C1 65.3135 1.50977 65.8271 2.14448 65.8271H42.5111C43.1408 65.8271 43.6556 65.3185 43.6556 64.6853V8.85607C43.6556 8.22788 43.1458 7.71436 42.5111 7.71436H31.771" stroke="white" stroke-width="1.5" stroke-linecap="round" stroke-linejoin="round"/>
<path d="M32.2858 18.8223H12.3649V38.6951H32.2858V18.8223Z" stroke="white" stroke-width="1.5" stroke-linecap="round" stroke-linejoin="round"/>
<path d="M6.90735 44.8972H37.7483" stroke="white" stroke-width="1.5" stroke-linecap="round" stroke-linejoin="round"/>
<path d="M6.90735 51.1243H37.7483" stroke="white" stroke-width="1.5" stroke-linecap="round" stroke-linejoin="round"/>
<path d="M6.90735 57.3464H37.7483" stroke="white" stroke-width="1.5" stroke-linecap="round" stroke-linejoin="round"/>
<path d="M24.8542 24.5756C24.8542 26.1062 23.6097 27.3427 22.0804 27.3427C20.5511 27.3427 19.3067 26.1012 19.3067 24.5756C19.3067 23.05 20.5511 21.8086 22.0804 21.8086C23.6097 21.8086 24.8542 23.05 24.8542 24.5756Z" stroke="white" stroke-width="1.5" stroke-linecap="round" stroke-linejoin="round"/>
<path d="M16.7979 38.6201V31.6253C16.7979 30.6331 17.6075 29.8254 18.602 29.8254H25.5589C26.5534 29.8254 27.363 30.6331 27.363 31.6253V38.6201" stroke="white" stroke-width="1.5" stroke-linecap="round" stroke-linejoin="round"/>
<path d="M22.0754 29.8306V33.0363" stroke="white" stroke-width="1.5" stroke-linecap="round" stroke-linejoin="round"/>
</svg>
