<svg width="19" height="16" viewBox="0 0 19 16" fill="none" xmlns="http://www.w3.org/2000/svg">
<path d="M1.16611 6.62589C1.16611 6.62589 9.56973 3.28558 12.4848 2.11096C13.604 1.63989 17.3916 0.134918 17.3916 0.134918C17.3916 0.134918 19.1368 -0.525803 18.9914 1.07706C18.9408 1.73778 18.5551 4.03806 18.163 6.528C17.5813 10.0518 16.949 13.9061 16.949 13.9061C16.949 13.9061 16.8541 14.9889 16.0258 15.1724C15.1974 15.3621 13.8379 14.5178 13.5976 14.3282C13.4016 14.1875 9.95545 12.0707 8.69079 11.0368C8.34934 10.7554 7.96362 10.1926 8.74138 9.53184C10.4866 7.98404 12.5796 6.05693 13.8379 4.83338C14.4197 4.27054 15.0014 2.95522 12.5733 4.55196C9.1271 6.85225 5.72518 9.01794 5.72518 9.01794C5.72518 9.01794 4.94742 9.48901 3.49307 9.06688C2.03872 8.64476 0.337764 8.08192 0.337764 8.08192C0.337764 8.08192 -0.825716 7.37838 1.16611 6.62589Z" fill="#145976"/>
</svg>
