<svg width="21" height="17" viewBox="0 0 21 17" fill="none" xmlns="http://www.w3.org/2000/svg">
<path fill-rule="evenodd" clip-rule="evenodd" d="M17.874 0.0334473H2.82221C1.22296 0.0334473 0 1.2564 0 2.85566V14.1445C0 15.7437 1.22296 16.9667 2.82221 16.9667H17.874C19.4732 16.9667 20.6962 15.7437 20.6962 14.1445V2.85566C20.6962 1.2564 19.4732 0.0334473 17.874 0.0334473ZM2.82222 1.9149H17.874C18.2503 1.9149 18.5325 2.10305 18.7207 2.47934L10.3481 8.31191L1.97556 2.47934C2.16371 2.10305 2.44593 1.9149 2.82222 1.9149ZM1.88149 14.1444C1.88149 14.7088 2.25778 15.0851 2.82222 15.0851H17.874C18.4384 15.0851 18.8147 14.7088 18.8147 14.1444V4.64293L10.9126 10.1933C10.7244 10.2873 10.5363 10.3814 10.3481 10.3814C10.16 10.3814 9.97182 10.2873 9.78367 10.1933L1.88149 4.64293V14.1444Z" fill="white"/>
</svg>
