<svg width="66" height="65" viewBox="0 0 66 65" fill="none" xmlns="http://www.w3.org/2000/svg">
<circle cx="32.5" cy="32.5" r="32.5" fill="url(#paint0_linear_2005_633)"/>
<path d="M31.9947 56.1886C43.0362 56.1886 51.9649 47.2928 51.9649 36.3297M31.9947 56.1886L31.9776 56.2056V44.1072C36.3056 44.1072 39.7987 40.6167 39.7987 36.3297H51.9649M31.9947 56.1886L51.9649 36.3297M31.262 23.8756L30.0011 25.1294M20.4249 28.9081L32.7274 16.6742M16.4547 27.1119L30.6145 12.9972M12.3823 25.3836L24.4973 13.3361M39.1342 54.8331L50.7039 43.3278M31.9947 50.4444L46.1885 36.3297M39.6794 37.0414L40.3951 36.3297M31.9947 44.6833L32.8126 43.87M56.2077 3H49.426L45.7114 10.8622M64.983 21.2831H61.1321L57.5367 24.4686M49.443 51.7661L54.4356 56.7308H63.3642M1 62.3056H11.3088L17.4941 56.1547M17.2045 12.9803L9.9968 9.01528H1.81789M11.2066 24.7906C14.3248 17.8433 21.328 12.9972 29.4558 12.9972C30.7508 12.9972 31.9947 13.1158 33.2215 13.3531L30.9212 25.2311C30.4441 25.1464 29.9499 25.0956 29.4388 25.0956C26.2524 25.0956 23.5091 26.9933 22.2993 29.7044L11.1896 24.7906H11.2066ZM10.6954 27.3661C9.58786 29.84 8.97444 32.5681 8.97444 35.4486C8.97444 46.4286 17.9201 55.3075 28.9446 55.3075V43.2092C24.6337 43.2092 21.1235 39.7356 21.1235 35.4317C21.1235 34.3133 21.3621 33.2289 21.8051 32.2631L10.6954 27.3492V27.3661ZM56.2077 32.6358C56.2077 28.4167 54.8786 24.5025 52.6294 21.3L42.6443 28.1964C43.5304 29.4503 44.0415 30.9922 44.0415 32.6358H56.2077ZM34.5165 22.7572C36.5612 23.1469 38.3163 24.3161 39.4579 25.9597L49.443 19.0633C46.5122 14.895 42.0138 11.8789 36.7998 10.8961L34.4995 22.7742L34.5165 22.7572Z" stroke="white" stroke-width="1.5" stroke-miterlimit="10" stroke-linecap="round" stroke-linejoin="round"/>
<defs>
<linearGradient id="paint0_linear_2005_633" x1="0" y1="32.5" x2="65" y2="32.5" gradientUnits="userSpaceOnUse">
<stop stop-color="#145976"/>
<stop offset="0.26" stop-color="#165A76"/>
<stop offset="0.4" stop-color="#1E5D77"/>
<stop offset="0.51" stop-color="#2B637A"/>
<stop offset="0.61" stop-color="#3F6B7E"/>
<stop offset="0.7" stop-color="#587683"/>
<stop offset="0.78" stop-color="#778388"/>
<stop offset="0.85" stop-color="#9B938F"/>
<stop offset="0.92" stop-color="#C6A698"/>
<stop offset="0.99" stop-color="#F5BAA1"/>
<stop offset="1" stop-color="#FFBFA3"/>
</linearGradient>
</defs>
</svg>
