<svg width="57" height="53" viewBox="0 0 57 53" fill="none" xmlns="http://www.w3.org/2000/svg">
<path d="M36.1238 35.8991V20.4858C27.6705 20.4858 20.8223 27.3901 20.8223 35.9126C20.8223 44.4351 27.6705 51.3394 36.1238 51.3394C40.3505 51.3394 44.1759 49.6133 46.9446 46.8219L36.1238 35.9126V35.8991Z" stroke="white" stroke-width="1.5" stroke-linecap="round" stroke-linejoin="round"/>
<path d="M36.1238 35.8991V20.4858C27.6705 20.4858 20.8223 27.3901 20.8223 35.9126C20.8223 44.4351 27.6705 51.3394 36.1238 51.3394C40.3505 51.3394 44.1759 49.6133 46.9446 46.8219L36.1238 35.9126V35.8991Z" stroke="white" stroke-width="1.5" stroke-linecap="round" stroke-linejoin="round"/>
<path d="M38.9189 17.1011C47.3723 17.1011 54.2205 24.0054 54.2205 32.5278H38.9189V17.1011Z" stroke="white" stroke-width="1.5" stroke-linecap="round" stroke-linejoin="round"/>
<path d="M38.9189 17.1011C47.3723 17.1011 54.2205 24.0054 54.2205 32.5278H38.9189V17.1011Z" stroke="white" stroke-width="1.5" stroke-linecap="round" stroke-linejoin="round"/>
<path d="M40.0293 35.3462L50.8501 46.2555C53.6188 43.4641 55.3309 39.6074 55.3309 35.3462H40.0293Z" stroke="white" stroke-width="1.5" stroke-linecap="round" stroke-linejoin="round"/>
<path d="M40.0293 35.3462L50.8501 46.2555C53.6188 43.4641 55.3309 39.6074 55.3309 35.3462H40.0293Z" stroke="white" stroke-width="1.5" stroke-linecap="round" stroke-linejoin="round"/>
<path d="M18.3747 33.5122C11.2589 32.9459 5.66797 26.9451 5.66797 19.6227C5.66797 11.9363 11.8474 5.7063 19.4848 5.7063C26.7076 5.7063 32.6196 11.2891 33.2482 18.3956" stroke="white" stroke-width="1.5" stroke-linecap="round" stroke-linejoin="round"/>
<path d="M18.3747 33.5122C11.2589 32.9459 5.66797 26.9451 5.66797 19.6227C5.66797 11.9363 11.8474 5.7063 19.4848 5.7063C26.7076 5.7063 32.6196 11.2891 33.2482 18.3956" stroke="white" stroke-width="1.5" stroke-linecap="round" stroke-linejoin="round"/>
<path d="M18.3749 37.5577C9.05221 36.9779 1.66895 29.1701 1.66895 19.6362C1.66895 10.1024 9.64073 1.67432 19.4851 1.67432C29.3295 1.67432 36.6191 9.05057 37.2611 18.3821" stroke="white" stroke-width="1.5" stroke-linecap="round" stroke-linejoin="round"/>
<path d="M18.3749 37.5577C9.05221 36.9779 1.66895 29.1701 1.66895 19.6362C1.66895 10.1024 9.64073 1.67432 19.4851 1.67432C29.3295 1.67432 36.6191 9.05057 37.2611 18.3821" stroke="white" stroke-width="1.5" stroke-linecap="round" stroke-linejoin="round"/>
<path d="M17.0908 27.6193V11.5723H20.8226C23.4442 11.5723 25.5709 13.7164 25.5709 16.3594C25.5709 19.0699 23.3505 21.2275 20.6755 21.1466L17.0908 21.0387" stroke="white" stroke-width="1.5" stroke-linecap="round" stroke-linejoin="round"/>
<path d="M17.0908 27.6193V11.5723H20.8226C23.4442 11.5723 25.5709 13.7164 25.5709 16.3594C25.5709 19.0699 23.3505 21.2275 20.6755 21.1466L17.0908 21.0387" stroke="white" stroke-width="1.5" stroke-linecap="round" stroke-linejoin="round"/>
<path d="M14.4824 24.4639H20.916" stroke="white" stroke-width="1.5" stroke-linecap="round" stroke-linejoin="round"/>
<path d="M14.4824 24.4639H20.916" stroke="white" stroke-width="1.5" stroke-linecap="round" stroke-linejoin="round"/>
</svg>
